<?xml version="1.0" encoding="utf-8"?>
<!-- Svg Vector Icons : http://www.onlinewebfonts.com/icon -->
<!DOCTYPE svg PUBLIC "-//W3C//DTD SVG 1.1//EN" "http://www.w3.org/Graphics/SVG/1.1/DTD/svg11.dtd">
<svg version="1.1" xmlns="http://www.w3.org/2000/svg" xmlns:xlink="http://www.w3.org/1999/xlink" x="0px" y="0px" viewBox="0 0 1000 1000" enable-background="new 0 0 1000 1000" xml:space="preserve">
<metadata> Svg Vector Icons : http://www.onlinewebfonts.com/icon </metadata>
<g><g transform="translate(0.000000,511.000000) scale(0.100000,-0.100000)"><path d="M4195.4,4368.7c-101.5-21.1-199.2-72.8-262.5-141.8c-76.6-82.4-2082.3-3224.1-2109.2-3306.5c-69-199.2,24.9-417.6,222.2-524.9c199.2-109.2,434.9-80.5,588.1,69c90,88.1,2095.8,3214.5,2132.2,3325.6c49.8,145.6,13.4,291.2-105.4,423.4C4544.1,4343.8,4364,4405.1,4195.4,4368.7z"/><path d="M5588.1,4364.8c-111.1-26.8-174.3-65.1-256.7-159c-111.1-126.4-147.5-274-97.7-415.7C5270.1,3679,7275.8,552.6,7365.9,464.5c153.3-151.3,392.7-178.2,592-67.1c180.1,101.5,275.8,310.4,226.1,496.2c-23,86.2-2030.6,3245.2-2124.5,3342.9C5957.9,4343.8,5741.4,4403.1,5588.1,4364.8z"/><path d="M502,954.9c-214.6-42.1-383.1-245.2-400.4-486.6C78.6,177.1,310.4-94.9,584.3-96.8h95.8l467.4-1787.3c260.5-996.2,488.5-1825.6,513.4-1879.3c91.9-183.9,300.8-333.3,521.1-375.5c141.8-26.8,5494.2-26.8,5636,0c220.3,42.1,429.1,191.6,521.1,375.5c24.9,53.7,252.9,885,513.4,1881.2L9319.9-96.8h95.8c273.9,1.9,505.8,273.9,482.8,565.1c-15.3,193.5-130.3,371.6-296.9,454c-86.2,42.1-109.2,44.1-530.7,44.1h-440.6l-11.5-191.6c-19.2-285.4-97.7-459.8-291.2-634.1c-287.4-258.6-687.7-310.3-1046-136c-191.6,92-293.1,208.8-538.3,613L6524.9,976H5000H3477l-208.8-339.1C3015.3,225,2977,175.2,2837.2,81.3c-182-126.4-339.1-176.3-547.9-178.1c-377.4-1.9-733.7,245.2-864,593.8c-17.2,47.9-36.4,172.4-44.1,277.8l-11.5,191.6L977,970.2C760.6,970.2,547.9,964.5,502,954.9z M3141.8-784.6c36.4-19.2,86.2-63.2,111.1-97.7l42.1-63.2V-2116c0-1329.5,7.7-1268.2-153.3-1346.7c-153.3-78.5-327.6-49.8-427.2,69l-51.7,63.2v1201.1v1203.1l42.1,53.6c23,28.7,67.1,68.9,99.6,88.1C2883.2-736.7,3051.7-736.7,3141.8-784.6z M4455.9-801.8c128.3-90,124.5-47.9,118.8-1348.7c-5.7-1139.8-7.7-1176.2-44.1-1226c-63.2-86.2-185.8-136-308.4-126.4c-111.1,9.6-178.2,46-245.2,137.9c-40.2,51.7-40.2,70.9-40.2,1243.3c0,1139.8,1.9,1193.5,36.4,1245.2c61.3,90.1,157.1,130.3,298.8,122.6C4364-757.7,4413.8-769.2,4455.9-801.8z M5921.5-788.4c57.5-28.7,88.1-61.3,114.9-122.6c36.4-80.5,36.4-132.2,32.6-1243.3c-5.7-1136-5.7-1159-46-1210.7c-69-93.9-134.1-128.4-251-137.9c-137.9-9.6-260.5,49.8-316.1,149.4c-32.6,63.2-34.5,124.5-30.6,1245.2l5.7,1178.1l42.1,59.4C5561.3-748.1,5768.2-709.8,5921.5-788.4z M7182-776.9c30.6-15.3,76.6-53.6,105.4-86.2l49.8-61.3v-1203v-1203l-51.7-63.2c-28.7-32.6-80.5-72.8-114.9-86.2c-143.7-61.3-354.4-5.8-427.2,111.1c-36.4,61.3-38.3,93.9-38.3,1243.3v1180.1l44.1,65.1c23,36.4,72.8,80.5,109.2,97.7C6940.6-740.5,7109.2-738.6,7182-776.9z"/></g></g>
</svg>