<?xml version="1.0" encoding="utf-8"?>
<!-- Generator: Adobe Illustrator 19.2.0, SVG Export Plug-In . SVG Version: 6.00 Build 0)  -->
<svg version="1.1" id="Layer_1" xmlns="http://www.w3.org/2000/svg" xmlns:xlink="http://www.w3.org/1999/xlink" x="0px" y="0px"
	 viewBox="0 0 207 22.5" style="enable-background:new 0 0 207 22.5;" xml:space="preserve">
<style type="text/css">
	.st0{fill:#FFFFFF;}
</style>
<g>
	<path class="st0" d="M17,6.1c1.7,0,2.9,0.2,3.6,0.7s1,1.2,1,2.3c0,0.6-0.1,1.1-0.4,1.6s-0.7,0.8-1.2,1.1c0.7,0.2,1.2,0.6,1.6,1.1
		s0.5,1.1,0.5,1.9c0,1.1-0.4,2-1.1,2.6s-1.9,0.9-3.4,0.9H7.3v-12H17V6.1z M12,8.9v1.7h3.1c0.7,0,1.1-0.1,1.3-0.2
		c0.2-0.1,0.3-0.3,0.3-0.7c0-0.3-0.1-0.5-0.3-0.7c-0.2-0.1-0.6-0.2-1.3-0.2H12V8.9z M12,15.1h3.3c0.8,0,1.3-0.1,1.5-0.2
		s0.3-0.4,0.3-0.8s-0.1-0.6-0.3-0.8c-0.2-0.1-0.7-0.2-1.5-0.2H12V15.1z"/>
	<path class="st0" d="M23.4,12.1c0-2.1,0.7-3.7,2-4.7c1.4-1.1,3.4-1.6,6.1-1.6s4.7,0.5,6.1,1.6s2,2.6,2,4.7s-0.7,3.7-2,4.7
		s-3.4,1.6-6.1,1.6s-4.7-0.5-6.1-1.6C24.1,15.8,23.4,14.2,23.4,12.1z M28.4,12.1c0,1,0.3,1.8,0.8,2.4s1.3,0.8,2.3,0.8
		s1.8-0.3,2.3-0.8c0.5-0.6,0.8-1.4,0.8-2.4c0-1.1-0.3-1.9-0.8-2.4c-0.5-0.6-1.3-0.8-2.3-0.8s-1.8,0.3-2.3,0.8
		C28.7,10.2,28.4,11.1,28.4,12.1z"/>
	<path class="st0" d="M54.2,17.1c-0.5,0.5-1.2,0.8-2.1,1.1c-0.8,0.2-1.9,0.3-3.2,0.3c-2.7,0-4.7-0.5-6.1-1.6s-2-2.6-2-4.7
		s0.7-3.7,2-4.7c1.4-1.1,3.4-1.6,6.1-1.6c2.3,0,4.1,0.4,5.4,1.1s2.1,1.8,2.3,3.2h-5.1c-0.2-0.5-0.6-0.9-1-1.1S49.6,8.7,49,8.7
		c-1,0-1.8,0.3-2.3,0.9c-0.6,0.6-0.9,1.5-0.9,2.5c0,1.1,0.3,1.9,0.9,2.5s1.4,0.9,2.4,0.9c0.8,0,1.4-0.1,1.9-0.4s0.8-0.7,0.9-1.2H50
		v-2.6h6.7v6.8h-2.1L54.2,17.1z"/>
	<path class="st0" d="M58.4,12.1c0-2.1,0.7-3.7,2-4.7c1.4-1.1,3.4-1.6,6.1-1.6s4.7,0.5,6.1,1.6s2,2.6,2,4.7s-0.7,3.7-2,4.7
		s-3.4,1.6-6.1,1.6s-4.7-0.5-6.1-1.6C59.1,15.8,58.4,14.2,58.4,12.1z M63.4,12.1c0,1,0.3,1.8,0.8,2.4s1.3,0.8,2.3,0.8
		s1.8-0.3,2.3-0.8c0.5-0.6,0.8-1.4,0.8-2.4c0-1.1-0.3-1.9-0.8-2.4c-0.5-0.6-1.3-0.8-2.3-0.8s-1.8,0.3-2.3,0.8
		C63.7,10.2,63.4,11.1,63.4,12.1z"/>
	<path class="st0" d="M76.5,18.1v-12h6.9l2,7.3l2.2-7.3h6.8v12h-4.3V8.7l-2.9,9.4h-3.6l-2.8-9.4v9.4H76.5z"/>
	<path class="st0" d="M95.4,18.1l5.2-12h5.9l4.9,12h-5.1l-0.4-1.2h-5.1l-0.4,1.2H95.4z M101.9,14h3l-1.5-4.2L101.9,14z"/>
	<path class="st0" d="M111.3,18.1v-2.7l7.1-6.4h-6.6V6h13v2.7l-7,6.1h6.8V18L111.3,18.1L111.3,18.1z"/>
	<path class="st0" d="M125.7,12.1c0-2.1,0.7-3.7,2-4.7c1.4-1.1,3.4-1.6,6.1-1.6s4.7,0.5,6.1,1.6s2,2.6,2,4.7s-0.7,3.7-2,4.7
		s-3.4,1.6-6.1,1.6s-4.7-0.5-6.1-1.6C126.4,15.8,125.7,14.2,125.7,12.1z M130.8,12.1c0,1,0.3,1.8,0.8,2.4s1.3,0.8,2.3,0.8
		s1.8-0.3,2.3-0.8c0.5-0.6,0.8-1.4,0.8-2.4c0-1.1-0.3-1.9-0.8-2.4c-0.5-0.6-1.3-0.8-2.3-0.8s-1.8,0.3-2.3,0.8
		C131,10.2,130.8,11.1,130.8,12.1z"/>
	<path class="st0" d="M146.9,18.1l-5.3-12h5.3l2.5,8.1l2.7-8.1h5.2l-5.5,12H146.9z"/>
	<path class="st0" d="M155.5,18.1l5.2-12h5.9l4.9,12h-5.1l-0.4-1.2h-5.1l-0.4,1.2H155.5z M162,14h3l-1.4-4.2L162,14z"/>
	<path class="st0" d="M181.5,6.1c1,0,1.9,0.1,2.5,0.2s1.1,0.3,1.5,0.5c0.5,0.3,0.8,0.6,1,1.1c0.2,0.4,0.4,1,0.4,1.6
		c0,0.7-0.2,1.3-0.5,1.9c-0.4,0.5-0.8,0.9-1.5,1.2c0.5,0.2,0.9,0.5,1.1,0.8s0.3,0.9,0.4,1.7c0,0.1,0,0.2,0,0.4
		c0.1,1.6,0.3,2.4,0.6,2.6v0.2h-5.2c-0.2-0.3-0.2-0.7-0.3-1.5c0-0.4,0-0.8-0.1-1c0-0.4-0.2-0.7-0.4-0.9s-0.7-0.3-1.2-0.3H177v3.7
		h-4.7v-12h9.2V6.1z M177.1,11.3h2.7c0.7,0,1.2-0.1,1.5-0.3c0.3-0.2,0.4-0.5,0.4-0.8c0-0.4-0.1-0.7-0.4-0.8
		c-0.3-0.2-0.8-0.2-1.6-0.2h-2.6V11.3z"/>
	<path class="st0" d="M191.9,18.1v-9h-4.4V6h13.4v3.1h-4.4v9H191.9z"/>
</g>
</svg>
