<?xml version="1.0" encoding="utf-8"?>
<!-- Generator: Adobe Illustrator 19.1.1, SVG Export Plug-In . SVG Version: 6.00 Build 0)  -->
<svg version="1.1" xmlns="http://www.w3.org/2000/svg" xmlns:xlink="http://www.w3.org/1999/xlink" x="0px" y="0px"
	 viewBox="0 0 200 200" style="enable-background:new 0 0 200 200;" xml:space="preserve">
<style type="text/css">
	.st0{enable-background:new    ;}
	.st1{fill-rule:evenodd;clip-rule:evenodd;fill:#F83A3A;}
</style>
<g id="circle_1_" class="st0">
	<g id="circle">
		<g>
			<path d="M102,69c19.3,0,35,15.7,35,35s-15.7,35-35,35c-19.3,0-35-15.7-35-35S82.7,69,102,69 M102,65c-21.5,0-39,17.5-39,39
				c0,21.5,17.5,39,39,39c21.5,0,39-17.5,39-39C141,82.5,123.5,65,102,65L102,65z"/>
		</g>
	</g>
</g>
<g id="Rounded_Rectangle_1_1_" class="st0">
	<g id="Rounded_Rectangle_1">
		<g>
			<path class="st1" d="M107,107.5L90.4,86.2c-2-2.6-5.8-3.1-8.4-1c-2.6,2-3.1,5.8-1,8.4l16.6,21.3c2,2.6,5.8,3.1,8.4,1
				C108.6,113.9,109.1,110.1,107,107.5z"/>
		</g>
	</g>
</g>
<g id="Rounded_Rectangle_1_copy_1_" class="st0">
	<g id="Rounded_Rectangle_1_copy">
		<g>
			<path class="st1" d="M149.5,64.5c-2.3-2.3-6.1-2.3-8.5,0L98.5,107c-2.3,2.3-2.3,6.1,0,8.5c2.3,2.3,6.1,2.3,8.5,0L149.5,73
				C151.8,70.7,151.8,66.9,149.5,64.5z"/>
		</g>
	</g>
</g>
</svg>
