<?xml version="1.0" encoding="utf-8"?>
<!-- Generator: Adobe Illustrator 19.1.1, SVG Export Plug-In . SVG Version: 6.00 Build 0)  -->
<svg version="1.1" id="Layer_1" xmlns="http://www.w3.org/2000/svg" xmlns:xlink="http://www.w3.org/1999/xlink" x="0px" y="0px"
	 viewBox="-49 141 512 512" style="enable-background:new -49 141 512 512;" xml:space="preserve">
<style type="text/css">
	.st0{fill:#FFFFFF;}
</style>
<path id="basket-7-icon" class="st0" d="M171.5,487.6c0,6.9-5.6,12.5-12.5,12.5c-6.9,0-12.5-5.6-12.5-12.5v-52.3
	c0-6.9,5.6-12.5,12.5-12.5c6.9,0,12.5,5.6,12.5,12.5V487.6z M220.5,487.6c0,6.9-5.6,12.5-12.5,12.5c-6.9,0-12.5-5.6-12.5-12.5v-52.3
	c0-6.9,5.6-12.5,12.5-12.5c6.9,0,12.5,5.6,12.5,12.5V487.6z M269.5,487.6c0,6.9-5.6,12.5-12.5,12.5c-6.9,0-12.5-5.6-12.5-12.5v-52.3
	c0-6.9,5.6-12.5,12.5-12.5c6.9,0,12.5,5.6,12.5,12.5V487.6z M197.1,395.1c-10.6-6.5-13.9-20.4-7.4-30.9l60.6-99.6
	c6.6-10.8,20.5-13.8,30.9-7.4c10.6,6.5,13.9,20.4,7.4,30.9l-60.6,99.6C221.5,398.5,207.5,401.5,197.1,395.1z M282.6,357l-24.5,40
	h84.4L281,523.3H133.3L71.5,397H162c-8.5-12.8-7.5-27.4-0.5-40H1v40h11c9.2,0,17.5,5.2,21.6,13.5l74.7,152.8H306l74.4-152.8
	c4-8.3,12.4-13.5,21.6-13.5h11v-40H282.6L282.6,357z"/>
</svg>
