<?xml version="1.0" encoding="utf-8"?>
<!-- Generator: Adobe Illustrator 19.1.1, SVG Export Plug-In . SVG Version: 6.00 Build 0)  -->
<svg version="1.1" id="Layer_1" xmlns="http://www.w3.org/2000/svg" xmlns:xlink="http://www.w3.org/1999/xlink" x="0px" y="0px"
	 viewBox="-49 141 512 512" style="enable-background:new -49 141 512 512;" xml:space="preserve">
<style type="text/css">
	.st0{fill:#FFFFFF;}
</style>
<path id="shopping-cart-3-icon" class="st0" d="M297.9,284.6H1.2l53.6,121.2h205.1L297.9,284.6z M412.8,246.1l-12.7,40h-30
	l-59.2,188.2H83.9l-17.6-40h215.4l59.2-188.2L412.8,246.1L412.8,246.1z M267.8,521c0,14.9-12,26.9-26.9,26.9S214,535.9,214,521
	s12-26.9,26.9-26.9S267.8,506.1,267.8,521z M178.9,521c0,14.9-12,26.9-26.9,26.9c-14.9,0-26.9-12-26.9-26.9s12-26.9,26.9-26.9
	C166.9,494.1,178.9,506.1,178.9,521z"/>
</svg>
