<?xml version="1.0" encoding="utf-8"?>
<!-- Generator: Adobe Illustrator 19.1.1, SVG Export Plug-In . SVG Version: 6.00 Build 0)  -->
<svg version="1.1" id="Layer_1" xmlns="http://www.w3.org/2000/svg" xmlns:xlink="http://www.w3.org/1999/xlink" x="0px" y="0px"
	 viewBox="-255 347 100 100" style="enable-background:new -255 347 100 100;" xml:space="preserve">
<style type="text/css">
	.st0{fill:#FFC000;}
</style>
<g id="Captions">
</g>
<g id="Your_Icon">
	<g>
		<path class="st0" d="M-224.4,392.6c0.7-4,2.5-6.8,5.2-9.5c3.5-3.5,8.3-5.3,13.2-5.3c3.3,0,6.5,1,9.3,2.6l3.4,2l5.2-9l-3.4-1.9
			c-4.4-2.5-9.5-4.3-14.6-4.3c-15,0-27.4,13.5-29,25.5h-7.1l12.3,20l12.1-20C-217.6,392.6-224.4,392.6-224.4,392.6z"/>
		<path class="st0" d="M-182.3,380.6l-12.1,20h6.8c-1.7,9-9.4,15-18.4,15c-3.3,0-6.5-0.9-9.3-2.5l-3.4-2l-5.2,9.1l3.4,1.9
			c4.4,2.5,9.4,3.9,14.5,3.9c7.8,0,15.1-3,20.6-8.5c4.6-4.6,7.5-9.9,8.3-16.9h7L-182.3,380.6z"/>
	</g>
</g>
</svg>
