<?xml version="1.0" encoding="utf-8"?>
<!-- Generator: Adobe Illustrator 16.0.0, SVG Export Plug-In . SVG Version: 6.00 Build 0)  -->
<!DOCTYPE svg PUBLIC "-//W3C//DTD SVG 1.1//EN" "http://www.w3.org/Graphics/SVG/1.1/DTD/svg11.dtd">
<svg version="1.1" id="Layer_1" xmlns="http://www.w3.org/2000/svg" xmlns:xlink="http://www.w3.org/1999/xlink" x="0px" y="0px"
	 width="612px" height="792px" viewBox="0 0 612 792" enable-background="new 0 0 612 792" xml:space="preserve">
<path id="currency-dollar-icon" d="M244.927,471.975c-32.273-16.137-28.807-51.039,19.005-53.789
	c38.729-2.151,79.011,12.551,103.753,20.918c0,0,15.42-67.774,19.006-83.433c-35.74-11.236-66.698-16.734-97.06-18.886v-46.02
	H218.87v50.203c-77.935,16.974-109.371,74.588-109.371,116.424c0,101.123,120.846,117.618,155.988,133.277
	c41.597,17.93,32.632,49.605-2.63,57.375c-40.401,8.845-95.027-9.563-132.44-24.146l-23.428,81.64
	c33.11,18.169,77.935,30.48,111.881,33.469v44.227h70.762v-49.486c63.591-8.965,117.38-48.171,117.261-117.141
	C407.012,527.318,311.147,501.857,244.927,471.975z"/>
</svg>
