<?xml version="1.0" encoding="utf-8"?>
<!-- Generator: Adobe Illustrator 16.0.0, SVG Export Plug-In . SVG Version: 6.00 Build 0)  -->
<!DOCTYPE svg PUBLIC "-//W3C//DTD SVG 1.1//EN" "http://www.w3.org/Graphics/SVG/1.1/DTD/svg11.dtd">
<svg version="1.1" id="Layer_1" xmlns="http://www.w3.org/2000/svg" xmlns:xlink="http://www.w3.org/1999/xlink" x="0px" y="0px"
	 width="612px" height="792px" viewBox="0 0 612 792" enable-background="new 0 0 612 792" xml:space="preserve">
<g>
	<g>
		<path fill="#FF7800" d="M230.968,451.842c25.704-15.912,48.96-18.359,68.544-12.24c2.448-3.672,3.672-7.344,6.12-11.016
			c17.136-30.6,25.704-58.751,35.496-97.919c3.672-14.688-9.792-69.769-39.168-37.944c-72.216,78.336-95.472-40.392-24.48-45.288
			c25.704-2.448,42.84-24.48,47.736-52.632c4.896-26.928-111.384-141.984-264.384,73.44
			c-70.992,100.368-47.736,232.56,40.392,266.832c24.48,9.791,48.96,9.791,74.664,3.672
			C180.784,508.146,196.696,473.875,230.968,451.842z M82.864,322.098c1.224-14.688,14.688-24.48,28.152-23.256
			c14.688,1.224,24.48,14.688,23.256,28.151c-1.224,14.688-14.688,24.48-28.152,23.256C91.432,349.026,81.64,335.562,82.864,322.098
			z M93.88,428.586c-14.688-1.225-24.48-14.688-23.256-28.152c1.224-14.687,14.688-24.479,28.152-23.255
			c14.688,1.225,24.48,14.689,23.256,28.152C122.032,420.018,108.568,429.811,93.88,428.586z M157.528,477.547
			c-1.224,14.688-14.688,24.479-28.152,23.256c-14.688-1.225-24.48-14.689-23.256-28.152c1.224-14.688,14.688-24.48,28.152-23.256
			C148.96,450.617,159.976,462.857,157.528,477.547z"/>
	</g>
	<g>
		<path fill="#FF7800" d="M305.632,588.93c55.08-7.344,61.2-66.096,44.063-99.143c-17.135-33.049-57.527-48.961-106.487-19.584
			c-82.008,48.959-58.752,171.359-58.752,171.359S224.848,599.945,305.632,588.93z"/>
		<polygon fill="#FF7800" points="423.137,481.219 376.624,412.674 337.456,453.066 370.504,500.803 		"/>
		<g>
			<path fill="#FF7800" d="M432.928,468.979l-42.84-61.201c15.912-20.807,39.168-44.063,69.768-63.647
				c62.424-44.064,127.296-61.2,141.984-37.944c15.912,23.256-22.031,77.111-85.68,119.953
				C486.784,446.945,457.408,461.635,432.928,468.979z"/>
		</g>
	</g>
</g>
</svg>
