<?xml version="1.0" encoding="UTF-8"?>
<!DOCTYPE svg PUBLIC "-//W3C//DTD SVG 1.1//EN" "http://www.w3.org/Graphics/SVG/1.1/DTD/svg11.dtd">
<!-- Creator: CorelDRAW X7 -->
<svg xmlns="http://www.w3.org/2000/svg" xml:space="preserve" width="200mm" height="200mm" version="1.1" style="shape-rendering:geometricPrecision; text-rendering:geometricPrecision; image-rendering:optimizeQuality; fill-rule:evenodd; clip-rule:evenodd"
viewBox="0 0 20000 20000"
 xmlns:xlink="http://www.w3.org/1999/xlink">
 <defs>
  <style type="text/css">
   <![CDATA[
    .str0 {stroke:#B49A5D;stroke-width:150}
    .fil1 {fill:none}
    .fil0 {fill:#FEFEFE}
    .fil2 {fill:#B49A5D}
    .fil3 {fill:#B49A5D;fill-rule:nonzero}
   ]]>
  </style>
 </defs>
 <g id="Слой_x0020_1">
  <metadata id="CorelCorpID_0Corel-Layer"/>
  <polygon class="fil0 str0" points="8632,2795 10000,1379 11268,2818 12261,2384 12913,3319 13975,3122 14354,4157 15435,4208 15612,5276 16621,5611 16501,6706 18213,7370 17226,9055 17942,9869 17297,10753 17760,11701 16882,12399 17165,13433 16139,13926 16155,15045 15097,15207 15062,16979 13230,16533 12671,17491 11644,17100 10906,17897 10000,17286 9070,17889 8298,17086 7279,17464 6727,16512 4870,16929 4871,15175 3799,14963 3834,13884 2831,13423 3111,12379 2232,11665 2750,10736 2058,9895 2776,9046 1799,7334 3476,6751 3348,5658 4401,5337 4527,4244 5608,4186 5979,3149 7070,3327 7644,2413 "/>
  <line class="fil1 str0" x1="10000" y1="1379" x2="9985" y2= "2827" />
  <line class="fil1 str0" x1="11139" y1="3560" x2="11268" y2= "2818" />
  <line class="fil1 str0" x1="12240" y1="2443" x2="11773" y2= "4019" />
  <line class="fil1 str0" x1="12492" y1="4281" x2="12913" y2= "3319" />
  <line class="fil1 str0" x1="13105" y1="4590" x2="13975" y2= "3122" />
  <line class="fil1 str0" x1="13725" y1="4998" x2="14354" y2= "4157" />
  <line class="fil1 str0" x1="14264" y1="5449" x2="15435" y2= "4208" />
  <line class="fil1 str0" x1="14788" y1="6003" x2="15609" y2= "5263" />
  <line class="fil1 str0" x1="15197" y1="6551" x2="16621" y2= "5611" />
  <line class="fil1 str0" x1="15566" y1="7184" x2="16503" y2= "6710" />
  <line class="fil1 str0" x1="15933" y1="8074" x2="18213" y2= "7370" />
  <line class="fil1 str0" x1="16187" y1="9213" x2="17226" y2= "9055" />
  <line class="fil1 str0" x1="16236" y1="9897" x2="17942" y2= "9869" />
  <line class="fil1 str0" x1="16204" y1="10638" x2="17313" y2= "10731" />
  <line class="fil1 str0" x1="16095" y1="11326" x2="17760" y2= "11701" />
  <line class="fil1 str0" x1="15890" y1="12056" x2="16882" y2= "12399" />
  <line class="fil1 str0" x1="15614" y1="12718" x2="17165" y2= "13433" />
  <line class="fil1 str0" x1="15262" y1="13349" x2="16147" y2= "13914" />
  <line class="fil1 str0" x1="14820" y1="13957" x2="16138" y2= "15041" />
  <line class="fil1 str0" x1="14341" y1="14478" x2="15097" y2= "15207" />
  <line class="fil1 str0" x1="13655" y1="15054" x2="15026" y2= "16970" />
  <line class="fil1 str0" x1="12758" y1="15595" x2="13223" y2= "16537" />
  <line class="fil1 str0" x1="12080" y1="15881" x2="12671" y2= "17491" />
  <line class="fil1 str0" x1="11406" y1="16078" x2="11644" y2= "17100" />
  <line class="fil1 str0" x1="9070" y1="17889" x2="9231" y2= "16190" />
  <line class="fil1 str0" x1="8298" y1="17086" x2="8542" y2= "16065" />
  <line class="fil1 str0" x1="7279" y1="17464" x2="7835" y2= "15850" />
  <line class="fil1 str0" x1="6727" y1="16512" x2="7200" y2= "15574" />
  <line class="fil1 str0" x1="4870" y1="16929" x2="6290" y2= "15014" />
  <line class="fil1 str0" x1="4871" y1="15175" x2="5610" y2= "14430" />
  <line class="fil1 str0" x1="3799" y1="14963" x2="5130" y2= "13897" />
  <line class="fil1 str0" x1="3834" y1="13884" x2="4722" y2= "13323" />
  <line class="fil1 str0" x1="2831" y1="13423" x2="4370" y2= "12687" />
  <line class="fil1 str0" x1="3111" y1="12379" x2="4103" y2= "12036" />
  <line class="fil1 str0" x1="2232" y1="11665" x2="3901" y2= "11308" />
  <line class="fil1 str0" x1="2750" y1="10736" x2="3795" y2= "10631" />
  <line class="fil1 str0" x1="2058" y1="9895" x2="3764" y2= "9917" />
  <line class="fil1 str0" x1="2776" y1="9046" x2="3817" y2= "9182" />
  <line class="fil1 str0" x1="1799" y1="7334" x2="4067" y2= "8071" />
  <line class="fil1 str0" x1="3476" y1="6751" x2="4416" y2= "7220" />
  <line class="fil1 str0" x1="3348" y1="5658" x2="4776" y2= "6592" />
  <line class="fil1 str0" x1="4401" y1="5337" x2="5207" y2= "6009" />
  <line class="fil1 str0" x1="4527" y1="4244" x2="5702" y2= "5481" />
  <line class="fil1 str0" x1="5608" y1="4186" x2="6241" y2= "5023" />
  <line class="fil1 str0" x1="5979" y1="3149" x2="6844" y2= "4620" />
  <line class="fil1 str0" x1="7070" y1="3327" x2="7493" y2= "4288" />
  <line class="fil1 str0" x1="7644" y1="2413" x2="8150" y2= "4042" />
  <line class="fil1 str0" x1="8631" y1="2793" x2="8853" y2= "3903" />
  <line class="fil1 str0" x1="9992" y1="16319" x2="10000" y2= "17286" />
  <line class="fil1 str0" x1="10659" y1="16224" x2="10880" y2= "17879" />
  <path class="fil2" d="M10000 3603c3533,0 6397,2864 6397,6397 0,3533 -2864,6397 -6397,6397 -3533,0 -6397,-2864 -6397,-6397 0,-3533 2864,-6397 6397,-6397zm0 2476c2165,0 3921,1756 3921,3921 0,1676 -1052,3106 -2532,3667 -308,948 63,1745 708,2020 2313,-853 3963,-3077 3963,-5687 0,-3347 -2713,-6060 -6060,-6060 -3347,0 -6060,2713 -6060,6060 0,2587 1621,4794 3902,5664 667,-337 907,-1003 682,-2031 -1434,-583 -2445,-1990 -2445,-3633 0,-2165 1756,-3921 3921,-3921z"/>
  <path class="fil0" d="M13397 11271c-515,1375 -1842,2355 -3397,2355 -1555,0 -2882,-980 -3397,-2355l6794 0z"/>
  <path class="fil2" d="M9991 2707c874,0 1583,709 1583,1583 0,875 -709,1583 -1583,1583 -875,0 -1583,-708 -1583,-1583 0,-874 708,-1583 1583,-1583z"/>
  <path class="fil0" d="M8833 4508c-2,-5 -4,-9 -6,-14l4 -3c0,0 -1,-1 -2,-1 -2,3 -5,4 -8,6 0,7 2,16 10,16 1,-2 2,-3 2,-4zm1167 942c-28,-13 -55,-39 -65,-64 -15,9 -35,16 -55,17 -44,1 -87,-29 -99,-64 -31,31 -71,25 -97,14 -38,-17 -53,-56 -51,-83 -7,6 -9,21 -12,33 -5,19 -19,32 -39,37 14,-43 -23,-43 -32,-77 -11,-43 11,-73 41,-88 -22,-13 -32,-37 -20,-71 9,-24 41,-41 66,-37 -24,22 -10,50 15,49 32,-1 63,-40 105,-62 46,-25 82,-29 127,-61 -31,-2 -55,7 -73,29 -5,-46 36,-63 64,-81 55,-36 -5,-121 -48,-132 -59,-14 -99,21 -93,63 6,49 55,36 75,27 1,26 -24,44 -35,49 -7,2 -17,4 -28,4 4,4 6,7 8,11 3,7 0,13 -4,18 -18,18 -51,18 -76,21 -16,2 -43,8 -57,13 -59,17 -103,54 -142,95 -7,7 -27,26 -43,40 5,7 11,18 12,26 11,2 22,17 16,33 6,7 11,18 7,25 11,11 5,26 0,30 -7,6 -21,8 -31,-3 -14,1 -23,-5 -28,-14 -24,-1 -37,-18 -28,-36 -16,-3 -22,-6 -35,-12 -14,1 -36,-1 -39,-22 -26,4 -45,-5 -46,-34 -14,-1 -21,-5 -27,-20 -8,-20 10,-45 17,-59 -4,-9 -15,-31 -18,-39 -17,-2 -27,-16 -29,-30 -25,-13 -16,-39 -20,-45 -6,-10 -13,-7 -18,-3 -2,-8 0,-11 2,-15 -13,-3 -22,-15 -19,-30l-205 -283c-17,-1 -23,-8 -22,-20 -14,-1 -27,-10 -30,-24 0,-1 0,-2 0,-3 -9,6 -21,9 -31,-2l-40 -15c2,-4 -10,0 -25,-10 -28,-18 -35,-57 -35,-63l36 7c0,-4 1,-8 3,-11 -12,-11 -7,-25 1,-31 -6,-8 -6,-16 2,-25 0,0 -1,0 -1,-1 -2,-2 -1,-5 1,-7 3,-1 6,-1 7,2 1,0 1,0 1,1 11,-5 20,-3 25,5 9,-6 24,-5 31,9 4,-1 8,-1 13,1l4 -35c5,1 42,19 52,50 5,17 0,39 -6,50 5,1 10,3 13,8 3,4 4,10 3,15 4,8 -2,16 -10,21 9,4 16,12 18,21 1,4 1,7 0,10 1,2 1,3 2,4 11,1 19,14 13,27l219 268c19,3 27,16 26,30 2,-1 10,-2 15,3 -8,4 -7,11 -2,16 9,9 27,6 36,34 15,3 23,20 22,36 8,5 18,17 18,17 3,-10 18,-10 25,-8 15,-22 42,-18 58,10 16,27 59,31 80,24 28,-11 72,-38 95,-56l0 0c19,-14 29,-23 40,-34l1 4c4,-1 6,-2 8,-2 0,-7 -1,-14 -2,-18 -6,8 -14,14 -26,19 -1,-6 -2,-11 -4,-17 -12,16 -31,26 -54,24 14,-11 21,-41 14,-66 -20,30 -92,37 -106,-18 28,11 45,-2 50,-16 8,-21 -19,-75 6,-116 19,-32 40,-50 91,-58 -4,-6 -5,-11 -7,-20 47,17 88,5 106,-32 -9,5 -23,6 -35,6 41,-33 38,-123 9,-171 -4,-2 -6,-4 -10,-6 -9,18 -36,18 -50,32 -5,-5 -8,-6 -13,-10 0,0 -1,74 -7,104 -6,35 -40,31 -58,46 -21,-20 -59,-20 -54,-58 6,-39 14,-74 16,-99 -13,23 -35,110 -45,136 -14,37 -51,26 -73,39 -14,-25 -48,-32 -35,-70 4,-11 61,-127 69,-148 -20,28 -74,129 -92,157 -19,29 -54,16 -79,24 -5,-23 -38,-46 -14,-84 32,-49 103,-134 108,-146 -15,12 -127,146 -136,154 -26,22 -65,5 -87,5 1,-25 -21,-53 9,-81 27,-24 88,-67 102,-80 -42,26 -90,70 -120,77 -50,12 -68,-7 -88,-15 17,-44 -4,-65 104,-109 -95,32 -136,16 -169,-9 13,-32 46,-59 74,-68 -58,2 -96,-24 -121,-55 21,-27 63,-47 110,-52 -71,-9 -127,-52 -134,-100 30,-18 77,-22 122,-19 -73,-24 -123,-77 -127,-124 40,-11 80,-5 115,2 -37,-26 -96,-72 -89,-141 35,-8 99,15 127,26 -87,-47 -118,-154 -72,-216 26,14 149,134 168,148 -62,-70 -92,-119 -109,-166 -19,-51 -21,-139 44,-169 31,68 140,242 201,314 5,-5 11,-12 19,-14 15,45 58,103 97,131 2,-4 5,-14 13,-24 41,59 148,140 183,189 26,37 27,72 -10,106 -15,14 -45,40 -20,75 41,57 131,55 157,6 -57,-6 -75,-74 -39,-113 16,27 48,38 81,25 21,-8 37,-19 46,-28 -46,15 -86,-12 -81,-58 37,31 76,2 83,-6 25,-27 31,-56 21,-101 -8,-40 -50,-102 -79,-123 -3,4 -10,12 -23,10 -9,-2 -23,-10 -32,-12 -28,-9 -56,-2 -73,8 -32,19 -30,40 -29,56 -49,-27 -32,-71 32,-88 -44,1 -80,38 -89,44 -24,16 -59,12 -79,3 -39,-17 -48,-60 -37,-70 4,15 17,29 39,32 34,3 66,-10 92,-21 20,-8 56,-14 80,-13 -44,-24 -113,-21 -137,15 -14,-11 -24,-22 -28,-46 -12,-62 38,-94 93,-94 0,-15 11,-22 25,-18 0,-6 2,-11 6,-14l-4 0c-55,-4 -108,-21 -136,-49 -50,-50 29,-114 1,-164 -26,12 -47,26 -85,31 -3,7 -6,23 -8,30 -12,57 47,66 32,127 -6,27 -28,35 -35,67 -1,0 -4,24 17,43 -47,1 -72,-37 -57,-73 6,-15 23,-29 22,-46 -24,32 -45,30 -83,19 -17,-5 -18,18 -8,35 -26,-13 -33,-38 -32,-49 0,-25 20,-36 39,-32 12,3 35,16 36,-5 3,-35 -55,-33 -42,-91 6,-31 40,-45 91,-52 7,-5 19,-17 26,-27 30,-47 59,-58 77,-49 21,11 31,20 50,29 13,6 28,9 37,20 22,27 1,69 -11,95 -8,15 -27,50 -19,75 10,31 63,50 95,57 2,0 4,1 6,1l0 -12c-10,-16 -18,-35 -25,-52 -21,-55 11,-79 60,-89 5,-3 12,-4 20,-2l2 0 1 9 6 -1 0 -11 1 0c-5,-5 -7,-11 -7,-17 0,-6 2,-11 5,-16l-7 0 3 -3c1,-2 5,-5 7,-8 2,-2 3,-4 4,-5 -2,1 -3,2 -5,3 -4,3 -7,6 -9,8l-3 2 0 -51 3 3c2,1 5,4 9,7 2,1 3,3 5,3 -1,-1 -2,-3 -4,-5 -2,-3 -6,-6 -7,-8l-3 -3 54 0 -3 3c-2,2 -5,5 -8,8 -1,2 -3,4 -4,6 2,-1 4,-3 6,-4 3,-3 7,-6 9,-7l3 -3 0 51 -3 -2c-2,-2 -6,-5 -9,-8 -2,-1 -4,-2 -6,-3 1,1 3,3 4,5 3,3 6,6 8,8l3 3 -8 0c4,5 6,10 6,16 0,6 -3,12 -8,17l2 0 -1 11 6 1 2 -9 1 0c8,-2 15,-1 20,2 49,10 81,34 60,89 -7,17 -15,36 -25,52l0 8c48,-15 136,-66 159,-97 3,-3 5,-5 6,-7l0 -34c-18,-27 -33,-61 -45,-91 -31,-79 15,-113 87,-127 8,-5 17,-7 29,-4l1 13 15 -2 -1 -15c4,0 7,0 9,0 -10,-5 -18,-16 -18,-29 0,-10 5,-19 13,-25l-12 0c6,-6 19,-19 20,-27 -8,2 -22,14 -28,19l0 -64c6,5 20,17 28,19 -1,-8 -14,-21 -20,-27l68 0c-6,6 -19,19 -21,27 9,-2 22,-14 29,-19l0 64c-7,-5 -20,-17 -29,-19 2,8 15,21 21,27l-12 0c8,6 13,15 13,25 0,13 -8,24 -18,29 2,0 5,0 8,0l-1 15 15 2 2 -13c12,-3 21,-1 29,4 71,14 117,48 86,127 -11,30 -27,64 -44,91l-1 33c2,2 4,5 7,8 23,31 111,82 159,97l0 -8c-10,-16 -18,-35 -25,-52 -21,-55 11,-79 60,-89 5,-3 12,-4 20,-2l1 0 2 9 6 -1 -1 -11 2 0c-5,-5 -8,-11 -8,-17 0,-6 2,-11 6,-16l-8 0 3 -3c2,-2 5,-5 8,-8 1,-2 3,-4 4,-5 -2,1 -4,2 -6,3 -3,3 -7,6 -9,8l-3 2 0 -51 3 3c2,1 6,4 9,7 2,1 4,3 6,4 -1,-2 -3,-4 -4,-6 -3,-3 -6,-6 -8,-8l-3 -3 54 0 -3 3c-1,2 -5,5 -7,8 -2,2 -3,4 -4,5 2,0 3,-2 5,-3 4,-3 7,-6 9,-7l3 -3 0 51 -3 -2c-2,-2 -5,-5 -9,-8 -2,-1 -3,-2 -5,-3 1,1 2,3 4,5 2,3 6,6 7,8l3 3 -7 0c3,5 5,10 5,16 0,6 -2,12 -7,17l1 0 0 11 6 1 1 -9 2 0c8,-2 15,-1 20,2 49,10 81,34 60,89 -7,17 -15,36 -25,52l0 12c2,0 4,-1 6,-1 32,-7 85,-26 95,-57 8,-25 -11,-60 -19,-75 -12,-26 -33,-68 -11,-95 9,-11 24,-14 37,-20 18,-9 29,-18 50,-29 17,-9 47,2 77,49 7,10 19,22 26,27 51,7 85,21 91,52 12,58 -45,56 -42,91 1,21 24,8 36,5 19,-4 39,7 39,32 1,11 -6,36 -32,49 10,-17 9,-40 -8,-35 -38,11 -59,13 -83,-19 -1,17 16,31 22,46 15,36 -10,74 -57,73 21,-19 18,-43 17,-43 -7,-32 -29,-40 -35,-67 -15,-61 44,-70 32,-127 -2,-7 -5,-23 -8,-30 -38,-5 -59,-19 -85,-31 -28,50 51,114 1,164 -28,28 -81,45 -136,49l-4 0c4,3 6,8 6,14 14,-4 25,3 25,18 55,0 105,32 93,94 -4,24 -14,35 -28,46 -24,-36 -93,-39 -137,-15 24,-1 60,5 80,13 26,11 58,24 92,21 22,-3 35,-17 39,-32 11,10 2,53 -37,70 -20,9 -55,13 -79,-3 -9,-6 -45,-43 -89,-44 64,17 81,61 32,88 0,-16 3,-37 -29,-56 -17,-10 -45,-17 -73,-8 -9,2 -23,10 -32,12 -13,2 -20,-6 -23,-10 -29,21 -71,83 -79,123 -10,45 -4,74 21,101 7,8 46,37 83,6 5,46 -35,73 -81,58 9,9 25,20 45,28 34,13 66,2 82,-25 36,39 18,107 -39,113 26,49 116,51 157,-6 25,-35 -5,-61 -20,-75 -37,-34 -36,-69 -10,-106 35,-49 142,-130 183,-189 8,10 11,20 13,24 39,-28 82,-86 97,-131 8,2 14,9 19,14 61,-72 170,-246 201,-314 65,30 63,118 44,169 -17,47 -47,96 -109,166 19,-14 142,-134 168,-148 46,62 15,169 -72,216 28,-11 92,-34 127,-26 7,69 -52,115 -89,141 35,-7 75,-13 115,-2 -4,47 -54,100 -127,124 45,-3 92,1 122,19 -7,48 -63,91 -134,100 47,5 89,25 110,52 -25,31 -63,57 -121,55 28,9 61,36 74,68 -33,25 -74,41 -169,9 108,44 87,65 104,109 -20,8 -38,27 -88,15 -30,-7 -78,-51 -120,-77 14,13 75,56 102,80 30,28 8,56 9,81 -22,0 -61,17 -87,-5 -9,-8 -121,-142 -136,-154 5,12 76,97 108,146 24,38 -9,61 -14,84 -25,-8 -60,5 -79,-24 -18,-28 -72,-129 -92,-157 8,21 65,137 69,148 13,38 -21,45 -35,70 -22,-13 -59,-2 -73,-39 -10,-26 -33,-113 -45,-136 2,25 10,60 15,99 6,38 -32,38 -53,58 -18,-15 -53,-11 -58,-46 -6,-30 -7,-104 -7,-104 -5,4 -8,5 -14,10 -13,-14 -40,-14 -50,-32 -3,2 -5,4 -9,6 -29,48 -32,138 9,171 -12,0 -26,-1 -35,-6 18,37 59,49 106,32 -2,9 -3,14 -7,20 51,8 72,26 91,58 25,41 -2,95 6,116 5,14 22,27 49,16 -13,55 -85,48 -105,18 -7,25 0,55 14,66 -23,2 -42,-8 -54,-24 -2,6 -3,11 -4,17 -12,-5 -20,-11 -26,-19 -1,4 -2,10 -2,17 2,13 4,23 7,27 13,21 39,33 60,43 45,20 96,44 143,42 6,0 33,-10 39,-30 -3,-6 -5,-13 -7,-21 -6,-1 -12,-6 -12,-14 0,-1 1,-2 1,-3 -6,-5 -10,-12 -9,-21 1,-9 6,-16 13,-21 0,-1 0,-2 0,-3 1,-5 4,-9 8,-12 17,-55 66,-95 125,-103l-3 -1c7,-6 23,-20 26,-29 -10,2 -26,14 -34,20l7 -73c6,7 21,22 30,25 -1,-10 -14,-26 -20,-33l76 7c-7,6 -23,19 -26,28 10,-1 26,-13 34,-19l-7 73c-6,-7 -21,-22 -30,-25 1,7 10,19 16,28 2,1 3,2 3,4l1 1c0,0 0,1 1,2 54,19 92,66 97,122 3,3 6,7 5,12 0,1 0,2 0,3 6,6 9,14 9,23 -1,8 -6,15 -13,19 0,1 0,2 0,3 -1,7 -7,11 -13,12 -13,28 -35,50 -62,65 0,8 -2,17 -9,21 -13,9 -32,8 -46,15 -11,5 -17,16 -29,18 -17,3 -36,-5 -52,-2 -24,4 -32,19 -52,17 -19,-2 -13,-14 -45,-21 -19,-13 -42,-32 -63,-42 -32,-16 -72,-20 -108,-30 -33,-10 -62,-25 -95,-32 -21,-5 -94,-9 -104,-23 -6,-17 16,-19 25,-60 0,-1 1,-4 1,-8 -20,7 -41,4 -53,0 -11,-5 -36,-23 -35,-49 20,9 69,22 75,-27 6,-42 -34,-77 -93,-63 -43,11 -103,96 -48,132 28,18 69,35 64,81 -18,-22 -42,-31 -73,-29 45,32 81,36 127,61 41,22 73,61 105,62 25,1 39,-27 15,-49 25,-4 57,13 66,37 12,34 2,58 -20,71 30,15 52,45 41,88 -9,34 -46,34 -32,77 -20,-5 -34,-18 -39,-37 -3,-12 -5,-27 -12,-33 2,27 -13,66 -51,83 -26,11 -66,17 -97,-14 -12,35 -55,65 -99,64 -20,-1 -40,-8 -55,-17 -11,25 -37,51 -65,64zm-1160 -987l0 0c0,-2 1,-6 2,-8 -2,-1 -5,0 -5,0l2 -7 -4 -3 -12 9 1 4 8 1c0,0 -1,2 -1,4 1,0 6,0 9,0zm46 8l0 0c1,0 3,0 4,-1 3,-7 -5,-11 -12,-14 -3,3 -5,5 -9,5 0,1 1,3 1,3l4 -3c4,4 8,7 12,10zm-31 78l0 0 15 5c2,-3 2,-6 0,-10 -5,-1 -11,0 -15,5zm1190 -1080c-14,1 -30,1 -45,1 -16,0 -31,0 -45,-1 -33,32 -109,73 -183,87l0 0c43,0 118,-3 127,-13 -1,26 -59,55 -97,63 31,3 60,0 84,-11 -13,18 -28,33 -53,40 26,31 80,51 133,46 -12,16 -36,25 -58,22 43,66 83,138 92,237 9,-99 49,-171 92,-237 -22,3 -46,-6 -58,-22 53,5 107,-15 133,-46 -25,-7 -40,-22 -53,-40 24,11 53,14 84,11 -38,-8 -96,-37 -97,-63 8,10 84,13 127,13l0 0c-74,-14 -150,-55 -183,-87z"/>
  <path class="fil2" d="M11771 5797c1535,640 2645,2095 2791,3825l-136 0c-145,-1668 -1214,-3070 -2692,-3693l37 -132zm-3582 179c-1422,645 -2443,2019 -2584,3646l-137 0c143,-1689 1205,-3116 2684,-3779l37 133z"/>
  <path class="fil2" d="M11903 5322c1741,701 3002,2345 3151,4300l-151 0c-148,-1886 -1363,-3471 -3041,-4154l41 -146zm-3843 191c-1622,706 -2788,2264 -2932,4109l-151 0c145,-1914 1357,-3530 3042,-4255l41 146z"/>
  <path class="fil2" d="M12036 4843c1949,763 3361,2597 3512,4779l-165 0c-145,-2117 -1504,-3899 -3382,-4652l35 -127zm-7419 4779l-135 0c148,-2141 1511,-3947 3404,-4735l32 117c-1836,771 -3158,2532 -3301,4618z"/>
  <path class="fil3" d="M9147 11846l-616 0 0 1157 -344 0 0 -1436 960 0 0 279zm1307 0l-416 0 0 1157 -344 0 0 -1157 -416 0 0 -279 1176 0 0 279zm1559 440c0,228 -60,410 -182,545 -122,134 -290,202 -505,202 -214,0 -382,-68 -504,-202 -122,-135 -182,-317 -182,-545 0,-231 60,-413 182,-547 122,-134 290,-201 504,-201 214,0 381,67 504,201 122,134 183,316 183,547zm-455 363c33,-44 58,-95 74,-154 16,-60 24,-130 24,-210 0,-86 -9,-160 -28,-220 -18,-61 -42,-110 -72,-147 -30,-38 -66,-66 -105,-84 -40,-17 -81,-26 -124,-26 -44,0 -84,8 -123,25 -39,17 -74,45 -106,83 -30,36 -54,86 -73,149 -19,63 -28,137 -28,221 0,85 9,158 27,218 18,60 42,109 72,147 30,38 65,66 105,84 40,18 82,27 126,27 44,0 86,-9 126,-27 40,-19 75,-47 105,-86z"/>
  <path class="fil2" d="M3998 9799c481,608 1857,-339 2005,857 -571,-614 -2116,379 -2005,-857z"/>
  <path class="fil2" d="M4072 10376c497,595 1847,-388 2027,804 -587,-599 -2105,434 -2027,-804z"/>
  <path class="fil2" d="M4183 10979c519,577 1832,-456 2056,729 -610,-577 -2089,511 -2056,-729z"/>
  <path class="fil2" d="M4527 11873c244,12 442,6 600,149 125,115 216,347 352,597 -759,-16 -805,-354 -952,-746z"/>
  <path class="fil2" d="M4732 12749c749,-8 621,-225 1405,706 -1048,154 -1100,-265 -1405,-706z"/>
  <path class="fil2" d="M5786 11985c-128,738 -290,578 446,1399 245,-957 -60,-1028 -446,-1399z"/>
  <path class="fil2" d="M5536 13752c691,-109 648,-334 1543,529 -979,291 -1193,-103 -1543,-529z"/>
  <path class="fil2" d="M6492 12730c-28,698 -257,682 703,1471 176,-1006 -239,-1173 -703,-1471z"/>
  <path class="fil2" d="M6510 14688c669,-288 759,-407 1727,328 -968,445 -1280,54 -1727,-328z"/>
  <path class="fil2" d="M7365 13413c-17,802 -17,880 954,1490 74,-1063 -439,-1207 -954,-1490z"/>
  <path class="fil2" d="M15944 9805c-482,609 -1857,-338 -2006,858 572,-614 2117,378 2006,-858z"/>
  <path class="fil2" d="M15870 10382c-498,596 -1848,-387 -2028,804 588,-598 2106,434 2028,-804z"/>
  <path class="fil2" d="M15759 10986c-519,576 -1832,-456 -2056,728 609,-576 2088,512 2056,-728z"/>
  <path class="fil2" d="M15415 11880c-245,12 -442,5 -600,149 -126,114 -217,346 -353,597 760,-16 805,-355 953,-746z"/>
  <path class="fil2" d="M15210 12756c-749,-8 -622,-225 -1405,706 1048,153 1100,-265 1405,-706z"/>
  <path class="fil2" d="M14156 11991c127,738 290,578 -446,1400 -245,-957 59,-1028 446,-1400z"/>
  <path class="fil2" d="M14405 13758c-690,-108 -648,-333 -1542,529 979,292 1192,-102 1542,-529z"/>
  <path class="fil2" d="M13450 12736c28,699 256,683 -704,1472 -176,-1007 240,-1173 704,-1472z"/>
  <path class="fil2" d="M13432 14695c-670,-288 -760,-408 -1728,328 968,445 1281,54 1728,-328z"/>
  <path class="fil2" d="M12576 13419c18,802 18,881 -954,1490 -74,-1063 439,-1206 954,-1490z"/>
  <path class="fil0" d="M9622 7592c-130,79 -339,59 -429,79 12,195 -23,524 -10,609 11,65 74,108 106,161 31,53 29,122 -40,164 -69,42 -209,61 -244,-11 -34,-71 11,-164 -23,-304 -35,-140 -106,-582 -114,-662 -8,-79 13,-163 124,-206 111,-42 626,-253 717,-283 91,-29 155,-7 187,-16 28,-9 87,-74 86,-113 -2,-40 -64,-83 -111,-165 -48,-82 -35,-187 -16,-256 18,-69 83,-140 135,-172 82,-52 269,-33 320,-11 59,27 112,77 135,170 14,56 -16,114 -11,149 6,35 55,89 41,107 -15,17 -49,13 -58,26 -9,13 20,25 11,38 -10,14 -39,20 -39,31 0,10 39,10 31,25 -8,15 -23,15 -24,33 -1,19 32,48 20,66 -29,43 -100,8 -122,32 -23,24 -19,63 1,82 20,19 76,29 139,32 64,2 80,31 103,75 22,40 208,315 287,593 98,-164 325,-290 347,-326 23,-35 -3,-161 16,-194 32,-55 211,-104 271,9 53,101 -54,201 -128,289 -74,87 -298,399 -370,461 -79,70 -138,158 -234,68 -95,-90 -195,-233 -261,-397 -64,235 -239,601 -244,670 -5,69 24,211 93,277 69,66 444,529 518,601 74,71 61,55 109,235 47,180 126,694 153,974 3,33 27,81 64,110 37,29 157,137 221,153 63,16 146,39 188,56 56,22 85,83 39,119 -65,51 -121,66 -230,46 -108,-20 -167,-73 -265,-81 -97,-8 -153,35 -230,6 -76,-29 -84,-138 -71,-175 13,-37 56,-129 53,-145 -2,-16 -402,-882 -326,-1032 -157,-79 -420,-291 -532,-387 -105,178 -368,693 -508,717 -141,24 -881,-69 -1267,-120 -140,38 -324,265 -400,270 -37,2 -60,-119 -21,-204 40,-85 72,-100 138,-186 66,-86 141,-248 201,-262 103,-24 107,93 156,140 38,36 780,-180 990,21 51,-127 136,-506 267,-640 -312,-333 95,-635 122,-691 26,-55 -48,-587 -61,-655z"/>
 </g>
</svg>
