<?xml version="1.0" encoding="utf-8"?>
<!-- Generator: Adobe Illustrator 19.1.1, SVG Export Plug-In . SVG Version: 6.00 Build 0)  -->
<svg version="1.1" id="Layer_1" xmlns="http://www.w3.org/2000/svg" xmlns:xlink="http://www.w3.org/1999/xlink" x="0px" y="0px"
	 viewBox="-255 334 100 125" style="enable-background:new -255 334 100 125;" xml:space="preserve">
<style type="text/css">
	.st0{fill:#A6B732;}
</style>
<g>
	<path class="st0" d="M-219.4,398.9c0,4.4-3.5,7.9-7.9,7.9c-4.4,0-7.9-3.5-7.9-7.9s3.5-7.9,7.9-7.9
		C-223,391-219.4,394.5-219.4,398.9z M-167.6,387.6v8.5c0,1.6-1.3,2.8-2.8,2.8h-1.3c0-5.6-4.6-10.2-10.2-10.2s-10.2,4.6-10.2,10.2
		h-24.9c0-5.6-4.6-10.2-10.3-10.2c-5.7,0-10.3,4.6-10.3,10.2h-1.9c-1.6,0-2.8-1.3-2.8-2.8v-11.5h36.1v-21.9c0-0.7,0.5-1.3,1.2-1.4
		c0.1,0,0.1,0,0.2,0h12.6c1.6,0,3.4,1.1,4.2,2.5l7.5,13.9c0.7,1.4,2.5,3,4,3.5l6.3,2.5C-168.8,384.3-167.6,386-167.6,387.6z
		 M-184.5,380l-7-12.8c-0.4-0.7-1.3-1.2-2.1-1.2h-6.6c-0.8,0-1.4,0.6-1.4,1.4v12.4c0,0.8,0.6,1.4,1.4,1.4h15
		C-184.5,381.3-184.1,380.7-184.5,380z M-205,361.3L-205,361.3c0.1,0,0.1,0,0.2,0H-205z M-182,391c-4.3,0-7.9,3.5-7.9,7.9
		s3.5,7.9,7.9,7.9s7.9-3.5,7.9-7.9S-177.6,391-182,391z M-238.1,366.6v14.6l12.8-7.3L-238.1,366.6z M-223.3,375l-12.9,7.4h25.8
		L-223.3,375z M-236.1,365.4l12.8,7.3l12.8-7.3H-236.1z M-221.2,373.9l12.8,7.4v-14.7L-221.2,373.9z"/>
</g>
</svg>
