<?xml version="1.0" encoding="utf-8"?>
<!-- Generator: Adobe Illustrator 16.0.0, SVG Export Plug-In . SVG Version: 6.00 Build 0)  -->
<!DOCTYPE svg PUBLIC "-//W3C//DTD SVG 1.1//EN" "http://www.w3.org/Graphics/SVG/1.1/DTD/svg11.dtd">
<svg version="1.1" id="Capa_1" xmlns="http://www.w3.org/2000/svg" xmlns:xlink="http://www.w3.org/1999/xlink" x="0px" y="0px"
	 width="612px" height="792px" viewBox="0 0 612 792" enable-background="new 0 0 612 792" xml:space="preserve">
<g id="XMLID_28_">
	<path id="XMLID_31_" fill="#FF7903" d="M280.284,210.619c33.273,0,60.306-27.001,60.306-60.309c0-33.317-27.032-60.31-60.306-60.31
		c-33.312,0-60.322,26.993-60.322,60.31C219.962,183.617,246.972,210.619,280.284,210.619z"/>
	<path id="XMLID_30_" fill="#FF7903" d="M373.479,552.367c-16.026,55.645-67.324,96.511-128.061,96.511
		c-73.551,0-133.365-59.816-133.365-133.345c0-54.429,32.836-101.275,79.696-121.976v-56.531
		c-76.74,23.114-132.811,94.351-132.811,178.506C58.939,618.346,142.592,702,245.417,702c74.934,0,139.522-44.535,169.137-108.436
		l-21.055-41.368C387.589,552.245,380.742,552.308,373.479,552.367z"/>
	<path id="XMLID_29_" fill="#FF7903" d="M549.186,623.956l-80.781-158.819c-6.029-11.884-18.218-19.364-31.551-19.364H333.389
		V422.18h89.046c8.892,0,16.365-4.647,21.193-11.342c3.138-4.361,5.369-9.429,5.369-15.222c0-14.665-11.879-26.56-26.563-26.56
		h-53.646h-35.399v-80.021c0-22.008-16.318-53.123-53.104-53.123c-29.337,0-53.121,23.787-53.121,53.123v173.374
		c0,29.928,24.261,54.188,54.19,54.188h97.359h36.429l70.936,139.47c6.233,12.284,18.673,19.372,31.583,19.372
		c5.411,0,10.898-1.236,16.026-3.861C551.144,662.723,558.078,641.389,549.186,623.956z"/>
</g>
</svg>
