<?xml version="1.0" encoding="utf-8"?>
<!-- Generator: Adobe Illustrator 19.1.1, SVG Export Plug-In . SVG Version: 6.00 Build 0)  -->
<svg version="1.1"
	 id="Layer_1" xmlns:sodipodi="http://sodipodi.sourceforge.net/DTD/sodipodi-0.dtd" xmlns:svg="http://www.w3.org/2000/svg" xmlns:rdf="http://www.w3.org/1999/02/22-rdf-syntax-ns#" xmlns:cc="http://creativecommons.org/ns#" xmlns:dc="http://purl.org/dc/elements/1.1/" xmlns:inkscape="http://www.inkscape.org/namespaces/inkscape"
	 xmlns="http://www.w3.org/2000/svg" xmlns:xlink="http://www.w3.org/1999/xlink" x="0px" y="0px" viewBox="-255 334 100 125"
	 style="enable-background:new -255 334 100 125;" xml:space="preserve">
<style type="text/css">
	.st0{fill:#85C6C5;}
</style>
<g>
	<path class="st0" d="M-180.7,399.8c-1.3-0.3-4-0.7-5.2-1c1.6-0.3,4.6-0.6,6.2-0.9c3.8-0.7,3.9-7.1,0.1-7.9c-1.6-0.4-4.5-0.7-6.1-1
		c1.2-0.4,3.9-0.8,5.1-1.1c3.9-1.2,3.7-8.3-0.5-8.5c-5.7-0.4-11.4-0.4-17.1-1.1h0c-5.9-0.6-9.7-4.6-15.9-1
		c-5.2,3-8.1,10.7-19.1,10.7c0,7.4,0.1,14.8,0.1,22.3c12.3,0,17.8,8.5,26,8.5c8.2,0,15.7-0.8,23.8-1.8c4.1-0.5,4.5-6.1,0.3-7.3
		c-0.7-0.2-2.8-0.4-3.5-0.6c1.4-0.2,4.2-0.4,5.6-0.6C-176.9,407.8-176.8,400.8-180.7,399.8z"/>
	<path class="st0" d="M-205.7,425.8c0,1.7,1.4,3.2,3.2,3.2c3.3,0,6.5,0,9.8,0c1.7,0,3.2-1.4,3.2-3.2c0-1.4,0-2.9,0-4.4
		c-6,0.7-12.6,1-16.1,1.1C-205.7,423.8-205.7,424.6-205.7,425.8z"/>
	<path class="st0" d="M-205.7,365.2c0,2,0,2.9,0,7c2.3,1,4.1,1.5,7.2,1.9c5.2,0.8,5.4,0.4,8.9,0.5c0-9.1,0-3.2,0-9.5
		c5.5-2.9,9.3-8.7,9.3-15.4c0-1.3-2.8-9.6-3-10.8l-5.5,0.9v12.7l-2.6,2.6h-12.6l-2.6-2.6v-12.7l0,0l-5.5-0.9c-0.3,1.2-3,9.5-3,10.8
		C-215,356.5-211.2,362.3-205.7,365.2z"/>
</g>
</svg>
