<?xml version="1.0" encoding="utf-8"?>
<!-- Generator: Adobe Illustrator 19.1.1, SVG Export Plug-In . SVG Version: 6.00 Build 0)  -->
<svg version="1.1" id="Layer_1" xmlns="http://www.w3.org/2000/svg" xmlns:xlink="http://www.w3.org/1999/xlink" x="0px" y="0px"
	 viewBox="-255 334 100 125" style="enable-background:new -255 334 100 125;" xml:space="preserve">
<style type="text/css">
	.st0{fill:#D75506;}
</style>
<path class="st0" d="M-166.4,394.3c0.9-3.5,6.4-6.5,6.4-10.3s-5.5-6.8-6.4-10.3c-1-3.6,2.3-9,0.4-12.2c-1.9-3.2-8.1-3.1-10.8-5.7
	c-2.6-2.6-2.5-8.9-5.7-10.8c-3.2-1.8-8.5,1.4-12.2,0.4c-3.5-0.9-6.5-6.4-10.3-6.4s-6.8,5.5-10.3,6.4c-3.6,1-9-2.3-12.2-0.4
	c-3.2,1.9-3.1,8.1-5.7,10.8c-2.6,2.6-8.9,2.5-10.8,5.7c-1.8,3.2,1.4,8.5,0.4,12.2c-0.9,3.5-6.4,6.5-6.4,10.3s5.5,6.8,6.4,10.3
	c1,3.6-2.3,9-0.4,12.2c1.9,3.2,8.1,3.1,10.8,5.7c2.6,2.6,2.5,8.9,5.7,10.8c3.2,1.8,8.5-1.4,12.2-0.4c3.5,0.9,6.5,6.4,10.3,6.4
	s6.8-5.5,10.3-6.4c3.6-1,9,2.3,12.2,0.4c3.2-1.9,3.1-8.1,5.7-10.8c2.6-2.6,8.9-2.5,10.8-5.7C-164.2,403.3-167.4,398-166.4,394.3z
	 M-210.8,399.3l-12.8-12.9l6.2-6.2l6.8,6.8l18.2-18.3l6,6.1L-210.8,399.3z"/>
</svg>
