<?xml version="1.0" encoding="utf-8"?>
<!-- Generator: Adobe Illustrator 16.0.0, SVG Export Plug-In . SVG Version: 6.00 Build 0)  -->
<!DOCTYPE svg PUBLIC "-//W3C//DTD SVG 1.1//EN" "http://www.w3.org/Graphics/SVG/1.1/DTD/svg11.dtd">
<svg version="1.1" id="Capa_1" xmlns="http://www.w3.org/2000/svg" xmlns:xlink="http://www.w3.org/1999/xlink" x="0px" y="0px"
	 width="564.188px" height="564.188px" viewBox="0 0 564.188 564.188" enable-background="new 0 0 564.188 564.188"
	 xml:space="preserve">
<g>
	<g>
		<circle fill="#FFF200" cx="281.138" cy="172.125" r="95.625"/>
		<path fill="#FFF200" d="M89.888,522.112l74.587-32.514l32.513,74.588l76.5-200.811c-40.163-1.912-78.413-15.301-107.1-38.25
			L89.888,522.112z"/>
		<path fill="#FFF200" d="M397.8,325.125c-30.6,22.949-66.938,36.338-107.1,38.25l76.5,200.811l32.513-74.588l74.587,32.514
			L397.8,325.125z"/>
		<path fill="#FFF200" d="M453.263,172.125C453.263,76.5,376.763,0,281.138,0c-95.625,0-172.125,76.5-172.125,172.125
			s76.5,172.125,172.125,172.125C376.763,344.25,453.263,267.75,453.263,172.125z M281.138,286.875
			c-63.112,0-114.75-51.639-114.75-114.75s51.638-114.75,114.75-114.75c63.112,0,114.75,51.638,114.75,114.75
			S344.25,286.875,281.138,286.875z"/>
	</g>
</g>
</svg>
