<?xml version="1.0" encoding="utf-8"?>
<!-- Generator: Adobe Illustrator 19.1.1, SVG Export Plug-In . SVG Version: 6.00 Build 0)  -->
<svg version="1.1" id="Layer_1" xmlns="http://www.w3.org/2000/svg" xmlns:xlink="http://www.w3.org/1999/xlink" x="0px" y="0px"
	 viewBox="-49 141 512 512" style="enable-background:new -49 141 512 512;" xml:space="preserve">
<style type="text/css">
	.st0{fill:#BDCF42;}
</style>
<path id="currency-dollar-icon" class="st0" d="M196.9,342.6c-27-13.5-24.1-42.7,15.9-45c32.4-1.8,66.1,10.5,86.8,17.5
	c0,0,12.9-56.7,15.9-69.8c-29.9-9.4-55.8-14-81.2-15.8V191h-59.2v42c-65.2,14.2-91.5,62.4-91.5,97.4c0,84.6,101.1,98.4,130.5,111.5
	c34.8,15,27.3,41.5-2.2,48c-33.8,7.4-79.5-8-110.8-20.2L81.5,538c27.7,15.2,65.2,25.5,93.6,28v37h59.2v-41.4
	c53.2-7.5,98.2-40.3,98.1-98C332.5,388.9,252.3,367.6,196.9,342.6z"/>
</svg>
