<?xml version="1.0" encoding="utf-8"?>
<!-- Generator: Adobe Illustrator 19.2.0, SVG Export Plug-In . SVG Version: 6.00 Build 0)  -->
<svg version="1.1" id="Layer_1" xmlns="http://www.w3.org/2000/svg" xmlns:xlink="http://www.w3.org/1999/xlink" x="0px" y="0px"
	 viewBox="0 0 243 47" style="enable-background:new 0 0 243 47;" xml:space="preserve">
<style type="text/css">
	.st0{fill:#000003;}
</style>
<g>
	<path class="st0" d="M38.9,27.5v8h-5.4V12.2H43c2.8,0,5,0.7,6.6,2.1s2.4,3.3,2.4,5.6c0,2.3-0.8,4.2-2.4,5.6s-3.8,2.1-6.6,2.1h-4.1
		V27.5z M38.9,23.3h4c1.2,0,2.1-0.3,2.7-1c0.6-0.6,0.9-1.5,0.9-2.5s-0.3-1.9-0.9-2.5c-0.6-0.7-1.5-1-2.7-1h-4V23.3z"/>
</g>
<g>
	<polygon class="st0" points="209.8,35.5 204.4,35.5 195.9,20.6 195.8,20.7 195.8,35.5 190.4,35.5 190.4,12.2 195.8,12.2 204.3,27 
		204.4,27 204.4,12.2 209.8,12.2 	"/>
</g>
<g>
	<polygon class="st0" points="181,25.5 171.8,25.5 171.8,31.3 182.6,31.3 182.6,35.5 166.4,35.5 166.4,12.2 182.7,12.2 182.7,16.3 
		171.8,16.3 171.8,21.4 181,21.4 	"/>
</g>
<g>
	<polygon class="st0" points="140.4,12.2 145.6,28.5 145.7,28.5 151,12.2 158.2,12.2 158.2,35.5 152.7,35.5 152.7,29.7 153.2,19.1 
		153.1,19 147.5,35.5 143.9,35.5 138.3,19.2 138.2,19.2 138.7,29.7 138.7,35.5 133.3,35.5 133.3,12.2 	"/>
</g>
<g>
	<polygon class="st0" points="125.6,16.3 119.5,16.3 119.5,35.5 114,35.5 114,16.3 107.9,16.3 107.9,12.2 125.6,12.2 	"/>
</g>
<g>
	<path class="st0" d="M89.1,26.6v8.9h-5.4V12.2h9c2.7,0,4.8,0.6,6.4,1.9c1.6,1.2,2.4,3,2.4,5.1c0,1.2-0.3,2.2-1,3.1
		c-0.6,0.9-1.6,1.6-2.8,2.1c1.4,0.4,2.5,1.1,3.1,2s0.9,2.1,0.9,3.5v1.5c0,0.6,0.1,1.3,0.3,2.1c0.2,0.8,0.5,1.3,0.9,1.7v0.3h-5.6
		c-0.4-0.3-0.7-0.9-0.8-1.8c-0.1-0.8-0.2-1.6-0.2-2.3V30c0-1.1-0.3-2-0.9-2.5c-0.6-0.6-1.4-0.9-2.6-0.9H89.1L89.1,26.6z M89.1,22.4
		h3.6c1.1,0,1.9-0.2,2.5-0.7s0.9-1.2,0.9-2.1c0-1-0.3-1.7-0.9-2.3c-0.6-0.6-1.4-0.9-2.5-0.9h-3.5v6H89.1z"/>
</g>
<g>
	<path class="st0" d="M76.8,25.9c0,2.9-0.9,5.2-2.7,7.1c-1.8,1.9-4.2,2.8-7.1,2.8c-3,0-5.4-0.9-7.2-2.8C58,31.1,57,28.8,57,25.9
		v-4.2c0-2.9,0.9-5.2,2.8-7.1c1.8-1.9,4.2-2.8,7.2-2.8c2.9,0,5.3,0.9,7.1,2.8c1.8,1.9,2.8,4.2,2.8,7.1L76.8,25.9L76.8,25.9z
		 M71.4,21.7c0-1.7-0.4-3-1.2-4.1c-0.8-1.1-1.9-1.6-3.3-1.6c-1.5,0-2.6,0.5-3.4,1.6s-1.2,2.4-1.2,4.1v4.2c0,1.7,0.4,3.1,1.2,4.1
		c0.8,1.1,1.9,1.6,3.4,1.6c1.4,0,2.5-0.5,3.3-1.6s1.2-2.4,1.2-4.1V21.7z"/>
</g>
<g>
	<path class="st0" d="M21.1,29.3c0-0.8-0.3-1.5-0.8-1.9s-1.5-0.9-2.9-1.4c-2.9-0.9-5.1-1.9-6.6-3c-1.4-1.1-2.1-2.6-2.1-4.6
		s0.8-3.5,2.5-4.7s3.8-1.8,6.4-1.8s4.7,0.7,6.4,2c1.7,1.3,2.4,3,2.4,5.1v0.1h-5.3c0-0.9-0.3-1.7-0.9-2.3c-0.6-0.6-1.5-0.9-2.6-0.9
		s-1.9,0.2-2.6,0.7c-0.6,0.5-0.9,1.1-0.9,1.8c0,0.7,0.3,1.2,0.9,1.6s1.8,0.9,3.5,1.5c2.6,0.8,4.6,1.8,6,2.9c1.3,1.2,2,2.7,2,4.8
		c0,2.1-0.8,3.7-2.4,4.8c-1.6,1.2-3.7,1.7-6.4,1.7c-2.6,0-4.9-0.7-6.9-2C8.9,32.4,7.9,30.5,8,28v-0.1h5.3c0,1.3,0.4,2.3,1.1,2.9
		s1.8,0.9,3.3,0.9c1.1,0,2-0.2,2.5-0.7C20.8,30.6,21.1,30,21.1,29.3z"/>
</g>
<g>
	<path d="M223.1,29.4c-4.9,0-8.9-4-8.9-8.8s4-8.8,8.9-8.8s8.9,4,8.9,8.8S228,29.4,223.1,29.4z M223.1,13.3c-4,0-7.2,3.2-7.2,7.2
		s3.2,7.2,7.2,7.2s7.2-3.2,7.2-7.2C230.4,16.6,227.1,13.3,223.1,13.3z"/>
</g>
<g>
	<path d="M226.2,23.9H225c-0.1,0-0.1-0.1-0.2-0.2l-1.4-2.7h-0.1c-0.3,0-0.7,0-0.9,0v2.7c0,0.1-0.1,0.2-0.2,0.2h-1
		c-0.1,0-0.2-0.1-0.2-0.2v-6.9c0-0.2,0.1-0.3,0.3-0.3c0.5-0.1,1.2-0.1,2-0.1c1.5,0,2.9,0.6,2.9,2.3v0.1c0,1.1-0.5,1.7-1.4,2l1.6,2.9
		v0.1C226.3,23.9,226.3,23.9,226.2,23.9z M224.7,18.7c0-0.8-0.5-1.1-1.5-1.1c-0.2,0-0.7,0-0.9,0v2.3c0.2,0,0.7,0,0.9,0
		C224.2,19.9,224.7,19.6,224.7,18.7L224.7,18.7z"/>
</g>
</svg>
