<?xml version="1.0" encoding="utf-8"?>
<!-- Generator: Adobe Illustrator 16.0.0, SVG Export Plug-In . SVG Version: 6.00 Build 0)  -->
<!DOCTYPE svg PUBLIC "-//W3C//DTD SVG 1.1//EN" "http://www.w3.org/Graphics/SVG/1.1/DTD/svg11.dtd">
<svg version="1.1" id="Слой_1" xmlns="http://www.w3.org/2000/svg" xmlns:xlink="http://www.w3.org/1999/xlink" x="0px" y="0px"
	 width="170.111px" height="215.993px" viewBox="0 0 170.111 215.993" enable-background="new 0 0 170.111 215.993"
	 xml:space="preserve">
<g>
	<g id="XMLID_1_">
		<g>
			<path fill="#EF4947" d="M90.07,184.439c1.29,1.23,2.79,2.11,3.9,2.65c-8.41,0.13-9.5,3.21-15.26,4.58
				c-6.28,1.49-6.02-1.51-10.47-0.4c-4.85,1.21-3.37,3.24-10.36,5.06c-10.08,2.64-10.57-0.69-12.89-0.56
				c-6.83,0.36-7.17,3.709-12.07,3.709c-7.01,0-3.94-3.899-8.8-3.899c-5.61,0-4.41,3.439-10.39,2.16c-3.86-0.82-2.76-4.36-7.28-5.93
				c-3.11-1.08-5.53,1.48-6.45-0.63c1.72-5.88,13.37-9.15,21.71-23.21c10.1-17.02,12.7-33.05,13.48-37
				c0.86,2.89,2.03,5.52,3.61,7.42c1.98,2.38,14.03-13.62,15.39-12.62c0.25,0.72,22.51,2.11,23,1.33c2.6,6.71,1.49,33.88,4.67,35.67
				c12.061,6.76,0.87,16.38,2.58,16.64c1.33,1.67,2.94,3.29,4.83,4.51L90.07,184.439z"/>
		</g>
	</g>
	<path fill="#090B0F" d="M159.265,25.552c-5.799-7.107-25.482-15.383-25.482-15.383s-1.823-2.385-3.366-4.769
		c-1.543-2.384-5.189-5.4-5.189-5.4s-9.116,0.07-9.889,0.351c-0.771,0.281-1.333,0.631-1.333,0.631s-8.206,8.906-9.046,10.52
		c-0.844,1.612-0.211,2.524-0.211,2.524l7.224,7.434c0,0,3.715-1.052,5.049-1.192c1.333-0.141,3.646,0.14,4.979,0
		c1.332-0.141,4.207-1.895,4.207-1.895s4.561,6.874,6.103,10.38c1.542,3.507-0.351,5.751,4.067,13.676
		c1.6,2.871,8.064,6.452,8.064,6.802c0,0.351-0.771,0.421-0.771,0.421l-4.629,0.351c0,0-2.735,2.665-6.451,7.714
		c-3.718,5.049-4.42,11.432-3.929,16.691c0.492,5.26-1.613,6.452-1.613,6.452s0.048-2.01,0.048-3.133
		c0-1.122-0.374-4.207-0.843-4.769c-0.468-0.561-3.553,0.654-7.761,4.114c-4.208,3.459-6.826,10.287-6.826,10.287
		s-2.336,0.561-4.486,0.187c-2.152-0.375-2.807-2.244-2.807-2.244s1.691-1.279,2.72-3.43c0.969-2.023,1.208-4.237,1.208-4.237
		s1.495-0.188,2.43-0.842c0.937-0.655,0.936-3.74,0.936-6.92c0-3.179-2.524-3.927-2.524-3.927s0.674-10.137-4.876-16.275
		c-0.736-0.908-1.615-1.641-2.316-2.046c-2.239-1.543-5.161-2.532-8.984-2.532c-17.58,0-17.767,20.854-17.767,20.854
		s-1.59,0.28-2.151,1.308c-0.562,1.029,0.093,5.33,0.093,8.604c0,3.273,4.114,3.272,4.114,3.272s0.162,0.287,0.162,2.575
		c0,2.288,2.363,5.14,4.794,6.122c3.114,1.257,4.832,1.22,4.909,1.777c0.047,0.339-5.552,0.725-8.427-1.871
		c-0.252-0.227-0.465-0.438-0.684-0.652c-0.663,1.399-1.955,3.535-4.401,5.982c-4.348,4.348-9.538,5.47-9.538,5.47
		c-1.164-1.267-5.094-2.749-10.344-1.914c-6.409-0.623-12.368,3.78-17.618,8.393c-8.25,7.25-4,26.25-4,26.25s-3.5,5.75-5,11.5
		s-2,26.5-2,26.5s2.75,5.333,10.083,14.095c7.333,8.761,24,19.072,24,19.072s-2,6.5-0.833,11.5s17.333-0.666,17.333-0.666
		s3.424,0.178,6.417-3.375c2-2.375-0.753-4.275,0-8.125c0.29-1.48,0.75-2.668-1.417-4.667c-2.167-2-8.083-2.333-8.083-2.333
		s-3.25-11.75-6.75-21s-14.25-17-14.25-17l7.055,2.731c1.12-1.085,3.225-4.318,3.945-13.564c1-12.833,0.917-13.583,0.917-13.583
		s2.05,11.879,0.632,17.917c0,0-0.458,2.339-1.097,4.784c-0.05,0.984-0.019,1.949,0.173,2.716c0.667,2.667,3.57,7.729,5.292,9.667
		c2.667,3,6.167,4.917,6.167,4.917s0.167,0.417,2.833,8.362c2.003,5.966,6.167,10.555,6.167,10.555s16.655-5.52,23.929-9.253
		c0.014-0.007,0.025-0.019,0.039-0.025c10.191-4.603,26.186-18.15,26.948-18.972c2.135-2.299,1.465-8.482,0.754-12.455
		c0.354-4.562-0.6-7.561-0.6-7.561c-0.141-0.982,1.543-4.77,3.646-8.977c2.104-4.208,3.788-4.488,5.611-8.978
		c4.134-10.174,3.835-17.485,4.303-20.01c0.283-1.541,3.553-3.085,6.452-9.07c1.936-3.998,3.646-6.546,8.696-20.478
		c5.049-13.933,4.861-21.788,5.143-24.125c0.279-2.338,1.495-5.237,1.495-5.237S165.064,32.659,159.265,25.552z"/>
	<g id="XMLID_2_">
		<g>
			<path fill="#EF4947" d="M102.5,95.589c-1.75,1.23-8.739,7.47-9.39,6.34l-0.1-1.59c0.01,0.01,0.02,0.01,0.02,0.01
				s6.53-6.62,7.44-8.13c1.47-2.45,4.14-7.91,4.489-7.43c0,0,0.91,2.1,2.801,2.17c1.899,0.07,1.83-1.68,2.739-1.61
				c0.91,0.07,2.8,0.84,0.63,2.95C108.959,90.399,105.1,93.77,102.5,95.589z"/>
			<path fill="#EF4947" d="M83.5,93.279c2.05,2.17,9.07,6.77,9.51,7.06l0.1,1.59c-1.78,0.2-8.69-1.49-13.47-2.9
				c-6.17-1.83-8.6-4.18-8.34-4.7c0.35-0.7,1.54-0.91,3.5-2.88c1.3-1.3,2.18-4.38,2.81-4.52C78.24,86.79,80.06,89.639,83.5,93.279z"
				/>
		</g>
	</g>
</g>
</svg>
