<?xml version="1.0" encoding="utf-8"?>
<!-- Generator: Adobe Illustrator 21.1.0, SVG Export Plug-In . SVG Version: 6.00 Build 0)  -->
<svg version="1.1" id="Слой_1" xmlns="http://www.w3.org/2000/svg" xmlns:xlink="http://www.w3.org/1999/xlink" x="0px" y="0px"
	 viewBox="0 0 285 285" style="enable-background:new 0 0 285 285;" xml:space="preserve">
<style type="text/css">
	.st0{fill:none;stroke:#000000;stroke-width:7;stroke-linecap:round;stroke-miterlimit:10;}
	.st1{fill:none;stroke:#000000;stroke-width:5;stroke-linecap:round;stroke-miterlimit:10;}
</style>
<path class="st0" d="M275,117.8h-63c-2.3,0-4.3,1.9-4.3,4.3v119.5c0,2.3,1.9,4.3,4.3,4.3h63c2.3,0,4.3-1.9,4.3-4.3V122.1
	C279.3,119.7,277.3,117.8,275,117.8z"/>
<path class="st0" d="M203,37.3H81.5c-2.3,0-4.3,1.9-4.3,4.3v200.5c0,2.3,1.9,4.3,4.3,4.3H203c2.3,0,4.3-1.9,4.3-4.3V41.6
	C207.3,39.2,205.3,37.3,203,37.3z"/>
<g>
	<rect x="94.3" y="103.8" class="st1" width="15" height="29.5"/>
	<rect x="134.8" y="103.8" class="st1" width="15" height="29.5"/>
	<rect x="175.3" y="103.8" class="st1" width="15" height="29.5"/>
</g>
<g>
	<rect x="94.3" y="58.8" class="st1" width="15" height="29.5"/>
	<rect x="134.8" y="58.8" class="st1" width="15" height="29.5"/>
	<rect x="175.3" y="58.8" class="st1" width="15" height="29.5"/>
</g>
<g>
	<rect x="94.3" y="151.8" class="st1" width="15" height="29.5"/>
	<rect x="134.8" y="151.8" class="st1" width="15" height="29.5"/>
	<rect x="175.3" y="151.8" class="st1" width="15" height="29.5"/>
</g>
<rect x="223.6" y="135.3" class="st1" width="15" height="16.5"/>
<rect x="253.3" y="135.3" class="st1" width="15" height="16.5"/>
<rect x="223.6" y="164.3" class="st1" width="15" height="16.5"/>
<rect x="253.3" y="164.3" class="st1" width="15" height="16.5"/>
<rect x="223.6" y="192.3" class="st1" width="15" height="16.5"/>
<rect x="253.3" y="192.3" class="st1" width="15" height="16.5"/>
<rect x="237.3" y="223.3" class="st1" width="15" height="22.5"/>
<path class="st0" d="M73,117.8H10c-2.3,0-4.3,1.9-4.3,4.3v119.5c0,2.3,1.9,4.3,4.3,4.3h63c2.3,0,4.3-1.9,4.3-4.3V122.1
	C77.3,119.7,75.3,117.8,73,117.8z"/>
<rect x="21.6" y="135.3" class="st1" width="15" height="16.5"/>
<rect x="51.3" y="135.3" class="st1" width="15" height="16.5"/>
<rect x="21.6" y="164.3" class="st1" width="15" height="16.5"/>
<rect x="51.3" y="164.3" class="st1" width="15" height="16.5"/>
<rect x="21.6" y="192.3" class="st1" width="15" height="16.5"/>
<rect x="51.3" y="192.3" class="st1" width="15" height="16.5"/>
<rect x="35.3" y="223.3" class="st1" width="15" height="22.5"/>
<rect x="125.3" y="209.3" class="st1" width="20.3" height="37"/>
<rect x="145.5" y="209.3" class="st1" width="20.3" height="37"/>
</svg>
