<?xml version="1.0" encoding="utf-8"?>
<!-- Generator: Adobe Illustrator 21.1.0, SVG Export Plug-In . SVG Version: 6.00 Build 0)  -->
<svg version="1.1" id="Слой_2" xmlns="http://www.w3.org/2000/svg" xmlns:xlink="http://www.w3.org/1999/xlink" x="0px" y="0px"
	 viewBox="0 0 285 285" style="enable-background:new 0 0 285 285;" xml:space="preserve">
<style type="text/css">
	.st0{fill:none;stroke:#000000;stroke-width:7;stroke-linecap:round;stroke-miterlimit:10;}
	.st1{fill:none;stroke:#000000;stroke-width:7;stroke-miterlimit:10;}
</style>
<path class="st0" d="M123,160.6V52.5c0-2.2,1.8-3.9,3.9-3.9H172c2.2,0,3.9,1.8,3.9,3.9v127.6"/>
<path class="st1" d="M81.6,77.4H118c2.5,0,4.5,2,4.5,4.5v74.2c0,2.5-2,4.5-4.5,4.5H81.6c-2.5,0-4.5-2-4.5-4.5V81.9
	C77.1,79.4,79.2,77.4,81.6,77.4z"/>
<path class="st1" d="M36.3,103.8h36.3c2.5,0,4.5,2,4.5,4.5v47.7c0,2.5-2,4.5-4.5,4.5H36.3c-2.5,0-4.5-2-4.5-4.5v-47.7
	C31.8,105.9,33.9,103.8,36.3,103.8z"/>
<path class="st0" d="M61,117.7H48c-1.7,0-3.1-1.4-3.1-3.1V107c0-1.7,1.4-3.1,3.1-3.1h13c1.7,0,3.1,1.4,3.1,3.1v7.6
	C64.2,116.3,62.8,117.7,61,117.7z"/>
<path class="st0" d="M154.2,69.3h-9.5c-2.1,0-3.8-1.7-3.8-3.8V52.4c0-2.1,1.7-3.8,3.8-3.8h9.5c2.1,0,3.8,1.7,3.8,3.8v13.1
	C158,67.6,156.3,69.3,154.2,69.3z"/>
<path class="st0" d="M176,160.6H26.4c-1.2,0-2.2,1-2.2,2.2v44.7c0,1.2,1,2.2,2.2,2.2h16.7"/>
<circle class="st0" cx="81.8" cy="224.7" r="23.6"/>
<circle class="st0" cx="205.7" cy="224.7" r="23.6"/>
<line class="st0" x1="229.3" y1="224.7" x2="260.8" y2="224.7"/>
<line class="st0" x1="105.4" y1="224.7" x2="182.2" y2="224.7"/>
<polyline class="st0" points="31.7,209.8 31.7,224.7 58.2,224.7 "/>
<line class="st0" x1="77.2" y1="121.2" x2="122.5" y2="121.2"/>
<line class="st0" x1="99.8" y1="77.4" x2="99.8" y2="86.7"/>
<line class="st0" x1="100.1" y1="121.2" x2="100.1" y2="137.9"/>
<line class="st0" x1="246.1" y1="209.8" x2="260.8" y2="209.8"/>
<line class="st0" x1="253.5" y1="190.9" x2="247.4" y2="190.9"/>
<polyline class="st0" points="176.3,115.2 232.2,115.2 254.9,164.4 254.9,209.8 "/>
<path class="st0" d="M194.4,115.2v27.4c0,12,9.7,21.8,21.8,21.8h38.8"/>
</svg>
