<?xml version="1.0" encoding="utf-8"?>
<!-- Generator: Adobe Illustrator 21.1.0, SVG Export Plug-In . SVG Version: 6.00 Build 0)  -->
<svg version="1.1" id="Слой_1" xmlns="http://www.w3.org/2000/svg" xmlns:xlink="http://www.w3.org/1999/xlink" x="0px" y="0px"
	 viewBox="0 0 285 285" style="enable-background:new 0 0 285 285;" xml:space="preserve">
<style type="text/css">
	.st0{fill:none;stroke:#000000;stroke-width:7;stroke-linecap:round;stroke-miterlimit:10;}
	.st1{fill:none;stroke:#000000;stroke-width:4;stroke-linecap:round;stroke-miterlimit:10;}
</style>
<path class="st0" d="M222.4,149.6c1.7,0,3-1.6,2.6-3.2c-8.1-35.6-39.9-62.1-77.8-62.1s-69.8,26.5-77.8,62.1
	c-0.4,1.7,0.9,3.2,2.6,3.2h23.3c1.1,0,2.2-0.7,2.5-1.8C104.5,127,124,112,147.1,112s42.6,15,49.4,35.8c0.4,1.1,1.4,1.8,2.5,1.8
	H222.4z"/>
<path class="st0" d="M73.2,178.6c-2.5,0-4.2,2.3-3.6,4.7c8.6,34.8,40,60.6,77.5,60.6s68.9-25.8,77.5-60.6c0.6-2.4-1.2-4.7-3.6-4.7
	h-21.1c-1.6,0-3,1-3.5,2.5c-7.1,20.4-26.4,35-49.2,35s-42.1-14.6-49.2-35c-0.5-1.5-1.9-2.5-3.5-2.5H73.2z"/>
<polygon class="st1" points="88.9,65.3 81.1,65.3 81.1,116.7 88.9,110 "/>
<line class="st0" x1="72.8" y1="65.3" x2="97.1" y2="65.3"/>
<polygon class="st1" points="207.3,65.3 215.1,65.3 215.1,116.7 207.3,110 "/>
<line class="st0" x1="223.3" y1="65.3" x2="199" y2="65.3"/>
</svg>
