<?xml version="1.0" encoding="utf-8"?>
<!-- Generator: Adobe Illustrator 21.1.0, SVG Export Plug-In . SVG Version: 6.00 Build 0)  -->
<svg version="1.1" id="Слой_1" xmlns="http://www.w3.org/2000/svg" xmlns:xlink="http://www.w3.org/1999/xlink" x="0px" y="0px"
	 viewBox="0 0 285 285" style="enable-background:new 0 0 285 285;" xml:space="preserve">
<style type="text/css">
	.st0{fill:none;stroke:#000000;stroke-width:7;stroke-linecap:round;stroke-miterlimit:10;}
	.st1{fill:none;stroke:#000000;stroke-width:5;stroke-linecap:round;stroke-miterlimit:10;}
</style>
<g>
	<path class="st0" d="M31.2,241h4.2c2.6,0,4.7-2.1,4.7-4.7V37.7c0-2.6-2.1-4.7-4.7-4.7h-4.2c-2.6,0-4.7,2.1-4.7,4.7v198.7
		C26.5,238.9,28.6,241,31.2,241z"/>
	<path class="st0" d="M144.2,241h4.2c2.6,0,4.7-2.1,4.7-4.7V37.7c0-2.6-2.1-4.7-4.7-4.7h-4.2c-2.6,0-4.7,2.1-4.7,4.7v198.7
		C139.5,238.9,141.6,241,144.2,241z"/>
	<path class="st0" d="M257.2,241h4.2c2.6,0,4.7-1.6,4.7-3.5v-148c0-1.9-2.1-3.5-4.7-3.5h-4.2c-2.6,0-4.7,1.6-4.7,3.5v148
		C252.5,239.4,254.6,241,257.2,241z"/>
</g>
<line class="st1" x1="40.5" y1="51.5" x2="139.5" y2="51.5"/>
<line class="st0" x1="13.5" y1="241.5" x2="53.5" y2="241.5"/>
<line class="st0" x1="126.5" y1="241.5" x2="166.5" y2="241.5"/>
<line class="st0" x1="239.5" y1="241.5" x2="279.5" y2="241.5"/>
<line class="st1" x1="153.5" y1="100.5" x2="252.5" y2="100.5"/>
</svg>
