<?xml version="1.0" encoding="utf-8"?>
<!-- Generator: Adobe Illustrator 19.2.0, SVG Export Plug-In . SVG Version: 6.00 Build 0)  -->
<svg version="1.1" id="Layer_1" xmlns="http://www.w3.org/2000/svg" xmlns:xlink="http://www.w3.org/1999/xlink" x="0px" y="0px"
	 viewBox="0 0 254 98" style="enable-background:new 0 0 254 98;" xml:space="preserve">
<style type="text/css">
	.st0{fill:#000003;}
	.st1{enable-background:new    ;}
</style>
<g>
	<path class="st0" d="M42.1,52.7v8h-5.4V37.4h9.5c2.8,0,5,0.7,6.6,2.1s2.4,3.3,2.4,5.6s-0.8,4.2-2.4,5.6c-1.6,1.4-3.8,2.1-6.6,2.1
		L42.1,52.7L42.1,52.7z M42.1,48.5h4c1.2,0,2.1-0.3,2.7-1c0.6-0.6,0.9-1.5,0.9-2.5s-0.3-1.9-0.9-2.5c-0.6-0.7-1.5-1-2.7-1h-4V48.5z"
		/>
</g>
<g>
	<polygon class="st0" points="213,60.7 207.6,60.7 199.1,45.8 199,45.9 199,60.7 193.6,60.7 193.6,37.4 199,37.4 207.5,52.2 
		207.6,52.2 207.6,37.4 213,37.4 	"/>
</g>
<g>
	<polygon class="st0" points="184.2,50.7 175,50.7 175,56.5 185.8,56.5 185.8,60.7 169.6,60.7 169.6,37.4 185.9,37.4 185.9,41.5 
		175,41.5 175,46.6 184.2,46.6 	"/>
</g>
<g>
	<polygon class="st0" points="143.6,37.4 148.8,53.7 148.9,53.7 154.2,37.4 161.4,37.4 161.4,60.7 155.9,60.7 155.9,54.9 
		156.4,44.3 156.3,44.2 150.7,60.7 147.1,60.7 141.5,44.4 141.4,44.4 141.9,54.9 141.9,60.7 136.5,60.7 136.5,37.4 	"/>
</g>
<g>
	<polygon class="st0" points="128.8,41.5 122.7,41.5 122.7,60.7 117.2,60.7 117.2,41.5 111.1,41.5 111.1,37.4 128.8,37.4 	"/>
</g>
<g>
	<path class="st0" d="M92.3,51.8v8.9h-5.4V37.4h9c2.7,0,4.8,0.6,6.4,1.9c1.6,1.2,2.4,3,2.4,5.1c0,1.2-0.3,2.2-1,3.1
		c-0.6,0.9-1.6,1.6-2.8,2.1c1.4,0.4,2.5,1.1,3.1,2s0.9,2.1,0.9,3.5v1.5c0,0.6,0.1,1.3,0.3,2.1c0.2,0.8,0.5,1.3,0.9,1.7v0.3h-5.6
		c-0.4-0.3-0.7-0.9-0.8-1.8c-0.1-0.8-0.2-1.6-0.2-2.3v-1.4c0-1.1-0.3-2-0.9-2.5c-0.6-0.6-1.4-0.9-2.6-0.9L92.3,51.8L92.3,51.8z
		 M92.3,47.6h3.6c1.1,0,1.9-0.2,2.5-0.7s0.9-1.2,0.9-2.1c0-1-0.3-1.7-0.9-2.3s-1.4-0.9-2.5-0.9h-3.5L92.3,47.6L92.3,47.6z"/>
</g>
<g>
	<path class="st0" d="M80,51.1c0,2.9-0.9,5.2-2.7,7.1S73.1,61,70.2,61c-3,0-5.4-0.9-7.2-2.8s-2.8-4.2-2.8-7.1v-4.2
		c0-2.9,0.9-5.2,2.8-7.1c1.8-1.9,4.2-2.8,7.2-2.8c2.9,0,5.3,0.9,7.1,2.8s2.8,4.2,2.8,7.1L80,51.1L80,51.1z M74.6,46.9
		c0-1.7-0.4-3-1.2-4.1s-1.9-1.6-3.3-1.6c-1.5,0-2.6,0.5-3.4,1.6s-1.2,2.4-1.2,4.1v4.2c0,1.7,0.4,3.1,1.2,4.1
		c0.8,1.1,1.9,1.6,3.4,1.6c1.4,0,2.5-0.5,3.3-1.6s1.2-2.4,1.2-4.1V46.9z"/>
</g>
<g>
	<path class="st0" d="M24.3,54.5c0-0.8-0.3-1.5-0.8-1.9s-1.5-0.9-2.9-1.4c-2.9-0.9-5.1-1.9-6.6-3c-1.4-1.1-2.1-2.6-2.1-4.6
		s0.8-3.5,2.5-4.7s3.8-1.8,6.4-1.8s4.7,0.7,6.4,2s2.4,3,2.4,5.1v0.1h-5.3c0-0.9-0.3-1.7-0.9-2.3s-1.5-0.9-2.6-0.9s-1.9,0.2-2.6,0.7
		c-0.6,0.5-0.9,1.1-0.9,1.8s0.3,1.2,0.9,1.6s1.8,0.9,3.5,1.5c2.6,0.8,4.6,1.8,6,2.9c1.3,1.2,2,2.7,2,4.8s-0.8,3.7-2.4,4.8
		c-1.6,1.2-3.7,1.7-6.4,1.7c-2.6,0-4.9-0.7-6.9-2c-1.9-1.3-2.9-3.2-2.8-5.7v-0.1h5.3c0,1.3,0.4,2.3,1.1,2.9s1.8,0.9,3.3,0.9
		c1.1,0,2-0.2,2.5-0.7C24,55.8,24.3,55.2,24.3,54.5z"/>
</g>
<g class="st1">
	<path d="M230.3,35.7c1.3,0,2.6,0.3,3.8,1c1.2,0.7,2.2,1.6,2.9,2.9c0.7,1.2,1,2.5,1,3.9c0,1.3-0.3,2.6-1,3.9
		c-0.7,1.2-1.6,2.2-2.9,2.9c-1.2,0.7-2.5,1-3.9,1s-2.6-0.3-3.9-1c-1.2-0.7-2.2-1.6-2.9-2.9s-1-2.5-1-3.9c0-1.4,0.3-2.7,1-3.9
		c0.7-1.2,1.7-2.2,2.9-2.9S229,35.7,230.3,35.7z M230.3,37c-1.1,0-2.2,0.3-3.2,0.8c-1,0.6-1.8,1.4-2.4,2.4c-0.6,1-0.9,2.1-0.9,3.3
		c0,1.1,0.3,2.2,0.9,3.2s1.4,1.8,2.4,2.4c1,0.6,2.1,0.9,3.2,0.9s2.2-0.3,3.2-0.9c1-0.6,1.8-1.4,2.4-2.4c0.6-1,0.9-2.1,0.9-3.2
		c0-1.1-0.3-2.2-0.9-3.3c-0.6-1-1.4-1.8-2.4-2.4S231.4,37,230.3,37z M226.9,47.8v-8.4h2.9c1,0,1.7,0.1,2.1,0.2
		c0.4,0.2,0.8,0.4,1.1,0.8c0.3,0.4,0.4,0.8,0.4,1.2c0,0.6-0.2,1.1-0.7,1.6c-0.4,0.5-1,0.7-1.7,0.8c0.3,0.1,0.5,0.3,0.7,0.4
		c0.3,0.3,0.7,0.9,1.2,1.7l1,1.6h-1.7l-0.7-1.3c-0.6-1-1.1-1.7-1.4-1.9c-0.2-0.2-0.6-0.3-1.1-0.3h-0.8v3.6H226.9z M228.3,43h1.6
		c0.8,0,1.3-0.1,1.6-0.4c0.3-0.2,0.4-0.5,0.4-0.9c0-0.2-0.1-0.5-0.2-0.7s-0.3-0.3-0.6-0.4c-0.2-0.1-0.7-0.1-1.4-0.1h-1.5V43z"/>
</g>
</svg>
