<?xml version="1.0" encoding="utf-8"?>
<!-- Generator: Adobe Illustrator 21.1.0, SVG Export Plug-In . SVG Version: 6.00 Build 0)  -->
<svg version="1.1" id="Слой_1" xmlns="http://www.w3.org/2000/svg" xmlns:xlink="http://www.w3.org/1999/xlink" x="0px" y="0px"
	 viewBox="0 0 285 285" style="enable-background:new 0 0 285 285;" xml:space="preserve">
<style type="text/css">
	.st0{fill:none;stroke:#000000;stroke-width:7;stroke-linecap:round;stroke-miterlimit:10;}
	.st1{fill:none;stroke:#000000;stroke-width:5;stroke-linecap:round;stroke-miterlimit:10;}
</style>
<line class="st0" x1="6" y1="242.5" x2="36.2" y2="242.5"/>
<line class="st0" x1="241" y1="242.5" x2="280" y2="242.5"/>
<line class="st0" x1="129.8" y1="242.5" x2="168.8" y2="242.5"/>
<g>
	<path class="st0" d="M262.3,242h-4.1c-2.5,0-4.6-2.1-4.6-4.7V38.7c0-2.6,2-4.7,4.6-4.7h4.1c2.5,0,4.6,2.1,4.6,4.7v198.7
		C266.8,239.9,264.8,242,262.3,242z"/>
	<path class="st0" d="M152.1,242H148c-2.5,0-4.6-2.1-4.6-4.7V38.7c0-2.6,2-4.7,4.6-4.7h4.1c2.5,0,4.6,2.1,4.6,4.7v198.7
		C156.7,239.9,154.6,242,152.1,242z"/>
</g>
<g>
	<line class="st1" x1="253.2" y1="52.5" x2="156.7" y2="52.5"/>
	<line class="st1" x1="253.3" y1="80.8" x2="156.7" y2="80.8"/>
	<line class="st1" x1="253.3" y1="109.2" x2="156.8" y2="109.2"/>
	<line class="st1" x1="253.4" y1="137.5" x2="156.9" y2="137.5"/>
	<line class="st1" x1="253.5" y1="165.8" x2="157" y2="165.8"/>
	<line class="st1" x1="253.6" y1="194.2" x2="157.1" y2="194.2"/>
	<line class="st1" x1="253.7" y1="222.5" x2="157.1" y2="222.5"/>
</g>
<path class="st0" d="M143.5,155.8H33.7c-9.6,0-17.4,8-17.4,17.9v67c0,0.9,0.7,1.6,1.5,1.6l6.4,0.1c0.9,0,1.6-0.7,1.6-1.6v-65.3
	c0-5.1,4.1-9.3,9.1-9.3h108.7"/>
</svg>
