<?xml version="1.0" encoding="utf-8"?>
<!-- Generator: Adobe Illustrator 21.1.0, SVG Export Plug-In . SVG Version: 6.00 Build 0)  -->
<svg version="1.1" id="Слой_1" xmlns="http://www.w3.org/2000/svg" xmlns:xlink="http://www.w3.org/1999/xlink" x="0px" y="0px"
	 viewBox="0 0 285 285" style="enable-background:new 0 0 285 285;" xml:space="preserve">
<g>
	<g>
		<path d="M213.1,122.9c-0.7-0.9-1.5-1.9-2.1-2.7c-6.6-8.5-9.9-17.9-12.9-26.3c-2.1-5.9-3.9-11.1-6.6-14.7
			c-7.2-10-34.4-14.1-40.3-13.9c-6.4,0.2-9.1,5.7-9.9,10.1c-1.9,0.5-4.5,1.7-6.7,4c-5.7,6,3.3,20.1,11.2,27.8
			c6.3,6.1,10.7,5.8,14.5,5.6c1.7-0.1,3.4-0.2,5.4,0.2c4.7,1.1,9.3,4.8,11.4,6.6c-1.8,32,3.5,47.7,5.8,54.6
			c-1.8-0.2-4.3-0.6-6.8-1.2c-13.8-25.5-42.3-22.2-51-20.5c-12.4-19.1-33.5-25.4-49.5-24.9c-14.8,0.5-24.2-0.5-24.3-0.5
			c-1.6-0.2-3.1,0.8-3.6,2.3c-0.5,1.4-11.6,34.7,2,67.3c13.2,31.6,28.8,57.5,29,57.8c0.6,1.1,1.8,1.6,2.9,1.6c0.6,0,1.2-0.2,1.7-0.5
			c15.4-9.2,22-21.4,24.5-27.5c30.7,12,63.7,7.7,86.2,1.7c25.2-6.6,42.7-16.3,43.5-16.7c0.9-0.5,1.6-1.5,1.7-2.5
			C245.4,163.9,225.2,138.2,213.1,122.9z M232.7,208c-10.4,5.4-72.9,35.3-125.5,12.5c-0.9-0.4-2-0.4-2.9,0.1
			c-0.9,0.4-1.6,1.3-1.8,2.2c0,0.1-3.8,14.3-19.8,25.1C78.3,240.3,66.4,219,56,194c-10.5-25.2-4.8-51.8-2.5-60
			c3.9,0.3,11.8,0.6,22.4,0.3c14.6-0.5,34,5.5,44.7,23.6c0.8,1.3,2.4,2,3.9,1.6c0.3-0.1,33-9,46.3,17.9c0.4,0.9,1.3,1.5,2.2,1.8
			c13.6,3.4,15.6,1.2,16.5,0.1c1.7-1.9,1-4.1-0.1-7.4c-2.2-6.5-7.4-21.8-5.4-53.6c0.1-1-0.3-1.9-1-2.6c-0.3-0.3-7.5-7.6-15.8-9.5
			c-3-0.7-5.4-0.5-7.4-0.4c-3.3,0.2-5.2,0.3-9.3-3.7c-7.4-7.2-11.5-16.2-10.9-18.3c2.1-2.1,4.7-2.3,4.8-2.3c1.9,0,3.3-1.5,3.4-3.4
			c0-0.1,0.2-6.1,3.5-6.2c7.1-0.2,29.9,4.6,34.6,11.1c2.1,2.9,3.7,7.6,5.7,13c3,8.4,6.7,18.8,13.9,28.2c0.7,0.9,1.4,1.8,2.2,2.8
			C219.7,142.3,237.7,165.2,232.7,208z"/>
	</g>
</g>
<g>
	<g>
		<path d="M179.1,200c-1-1.6-3.1-2.1-4.7-1.1c-24.8,15.5-60.4-16.4-60.8-16.7c-1.4-1.3-3.6-1.2-4.8,0.2c-1.3,1.4-1.2,3.6,0.2,4.8
			c0.4,0.4,9.9,8.9,23,15.5c9.6,4.8,18.7,7.2,27,7.2c7,0,13.4-1.8,19-5.3C179.6,203.7,180.1,201.6,179.1,200z"/>
	</g>
</g>
<g>
	<g>
		<path d="M131.4,166.1l-8.8-17.1c-0.9-1.7-2.9-2.3-4.6-1.5c-1.7,0.9-2.3,2.9-1.5,4.6l8.8,17.1c0.6,1.2,1.8,1.9,3,1.9
			c0.5,0,1.1-0.1,1.6-0.4C131.6,169.8,132.3,167.8,131.4,166.1z"/>
	</g>
</g>
</svg>
