<?xml version="1.0" encoding="utf-8"?>
<!-- Generator: Adobe Illustrator 21.1.0, SVG Export Plug-In . SVG Version: 6.00 Build 0)  -->
<svg version="1.1" id="Слой_1" xmlns="http://www.w3.org/2000/svg" xmlns:xlink="http://www.w3.org/1999/xlink" x="0px" y="0px"
	 viewBox="0 0 285 285" style="enable-background:new 0 0 285 285;" xml:space="preserve">
<style type="text/css">
	.st0{fill:none;stroke:#000000;stroke-width:7;stroke-linecap:round;stroke-miterlimit:10;}
</style>
<line class="st0" x1="18.5" y1="242.5" x2="58.5" y2="242.5"/>
<line class="st0" x1="225.5" y1="242.5" x2="265.5" y2="242.5"/>
<path class="st0" d="M251.8,240v-92.7c0-13.7-11.1-24.7-24.7-24.7H57.5c-13.7,0-24.7,11.1-24.7,24.7V240c0,1.2,1,2.2,2.2,2.2l9,0.1
	c1.2,0,2.3-1,2.3-2.2v-90.4c0-7.1,5.8-12.9,12.9-12.9h166.3c7.1,0,12.9,5.8,12.9,12.9v90.4c0,1.2,1,2.3,2.3,2.2l9-0.1
	C250.8,242.2,251.8,241.2,251.8,240z"/>
<path class="st0" d="M251.8,148.5v-33.3c0-13.7-11.1-24.7-24.7-24.7H57.5c-13.7,0-24.7,11.1-24.7,24.7v29.4"/>
<path class="st0" d="M46.3,125.2v-7.5c0-7.1,5.8-12.9,12.9-12.9h166.3c7.1,0,12.9,5.8,12.9,12.9v7.5"/>
</svg>
