<?xml version="1.0" encoding="utf-8"?>
<!-- Generator: Adobe Illustrator 21.1.0, SVG Export Plug-In . SVG Version: 6.00 Build 0)  -->
<svg version="1.1" id="Слой_2" xmlns="http://www.w3.org/2000/svg" xmlns:xlink="http://www.w3.org/1999/xlink" x="0px" y="0px"
	 viewBox="0 0 285 285" style="enable-background:new 0 0 285 285;" xml:space="preserve">
<style type="text/css">
	.st0{fill:none;stroke:#000000;stroke-width:7;stroke-linecap:round;stroke-miterlimit:10;}
</style>
<path class="st0" d="M112.3,161.8c0,0,39,34,64.3,17.3"/>
<path class="st0" d="M129.3,146c0,0-6.4-26.3-27.1-33.3c-18.5-6.2-43.9-5.8-49.3-5.7c-0.6,0-1.1,0.4-1.3,1
	c-1.3,4.6-6.7,25.2-4.3,47.7c2.5,23.2,29.5,66,34.3,73.4c0.4,0.6,1.2,0.8,1.8,0.4c4.3-2.6,19.5-12.8,23.3-26.2
	c0.2-0.6,0.8-1,1.4-0.8c8.7,3.1,66.9,21.6,128.3-15.4c0.4-0.2,0.6-0.6,0.6-1c0.6-4.8,4.3-35.7-5.3-53.8
	c-7.6-14.2-25.6-36.5-28.5-42.3c-6.3-12.4-5.1-28.5-14-34.8c-6.2-4.4-27.3-13.3-38.3-9.8c-9.6,3-6.3,8.5-5.3,9.9
	c0.1,0.1,0,0.3-0.2,0.4c-1.7,0.1-8.2,0.8-9.8,3.2c-1.9,2.8,9,24.1,19.7,27.1c10.5,3,13-4.4,25.5,8c0.3,0.3,0.5,0.8,0.4,1.2
	c-1,5.4-6.7,39.6,6.5,57.9c0.3,0.5,0.1,1.1-0.5,1.2c-2.5,0.4-8.3,1.2-10.8-0.7c-3.3-2.5-13.8-28.5-52-20.4"/>
</svg>
