<?xml version="1.0" encoding="utf-8"?>
<!-- Generator: Adobe Illustrator 21.1.0, SVG Export Plug-In . SVG Version: 6.00 Build 0)  -->
<svg version="1.1" id="Слой_2" xmlns="http://www.w3.org/2000/svg" xmlns:xlink="http://www.w3.org/1999/xlink" x="0px" y="0px"
	 viewBox="0 0 285 285" style="enable-background:new 0 0 285 285;" xml:space="preserve">
<style type="text/css">
	.st0{fill:none;stroke:#000000;stroke-width:7;stroke-linecap:round;stroke-miterlimit:10;}
</style>
<path class="st0" d="M195.9,95.7h-66.7c-4.8,0-8.7-3.9-8.7-8.7V59c0-4.8,3.9-8.7,8.7-8.7h66.7c4.8,0,8.7,3.9,8.7,8.7v28.1
	C204.6,91.8,200.7,95.7,195.9,95.7z"/>
<rect x="71.2" y="65.1" class="st0" width="49.3" height="16.2"/>
<rect x="204.6" y="54" class="st0" width="49.3" height="16.2"/>
<rect x="219.6" y="37.3" class="st0" width="16.2" height="16.2"/>
<rect x="219.6" y="86.5" class="st0" width="16.2" height="16.2"/>
<rect x="204.6" y="70.2" class="st0" width="49.3" height="16.2"/>
<path class="st0" d="M38.4,50.4h58.8v14.8H26.6v-2.9C26.6,55.7,31.8,50.4,38.4,50.4z"/>
<path class="st0" d="M38.4,96.1h58.8V81.4H26.6v2.9C26.6,90.8,31.8,96.1,38.4,96.1z"/>
<circle class="st0" cx="148.4" cy="153.4" r="21.5"/>
<line class="st0" x1="147.1" y1="96.1" x2="127.9" y2="147.1"/>
<polyline class="st0" points="187.4,96.1 169.8,151.6 229.3,187.2 229.3,216.6 162.6,216.6 155.4,173.7 "/>
<line class="st0" x1="162.6" y1="216.6" x2="229.3" y2="187.2"/>
<rect x="137.8" y="230.8" class="st0" width="114.1" height="18.3"/>
<polyline class="st0" points="142.4,229.3 157.1,216.6 234.7,216.6 249.4,229.3 "/>
</svg>
