<?xml version="1.0" encoding="utf-8"?>
<!-- Generator: Adobe Illustrator 21.1.0, SVG Export Plug-In . SVG Version: 6.00 Build 0)  -->
<svg version="1.1" id="Слой_1" xmlns="http://www.w3.org/2000/svg" xmlns:xlink="http://www.w3.org/1999/xlink" x="0px" y="0px"
	 viewBox="0 0 285 285" style="enable-background:new 0 0 285 285;" xml:space="preserve">
<style type="text/css">
	.st0{fill:none;stroke:#000000;stroke-width:7;stroke-linecap:round;stroke-miterlimit:10;}
	.st1{stroke:#000000;stroke-width:7;stroke-miterlimit:10;}
	.st2{fill:none;stroke:#000000;stroke-width:7;stroke-linecap:round;stroke-linejoin:round;stroke-miterlimit:10;}
</style>
<path class="st0" d="M59.6,132.9c0-13.7,11.1-24.9,24.9-24.9s24.9,11.1,24.9,24.9c0,11.8-8.6,20.5-19.3,24.2
	c-5.6,2-5.6,6.3-5.6,10.3"/>
<circle class="st1" cx="84.5" cy="181.6" r="0.5"/>
<polyline class="st2" points="172.4,185 194,206.6 240.8,159.8 "/>
<path class="st0" d="M65.2,222.9c-33.6-8.6-58.5-38.7-59.4-74.7C4.7,104.6,39.5,68,83,67c44.6-1,81.1,34.8,81.1,79.1
	c0,36.6-24.8,67.3-58.5,76.4c-4.2,1.1-7.1,5-7.1,9.4l0,13.6c0,2.1-2.5,3.1-4,1.7l-18-18C73.4,226.1,69.4,224,65.2,222.9z"/>
<path class="st0" d="M118,218.1v10.1c0,6.6,5.4,12,12,12h35.3c0.9,0,1.8,0.4,2.4,1l17.1,17.1c1,1,2.6,0.3,2.6-1.1v-13.6
	c0-1.9,1.5-3.4,3.4-3.4h72.6c6.6,0,12-5.4,12-12v-87.8c0-6.6-5.4-12-12-12H162.1"/>
</svg>
