<?xml version="1.0" encoding="utf-8"?>
<!-- Generator: Adobe Illustrator 21.1.0, SVG Export Plug-In . SVG Version: 6.00 Build 0)  -->
<svg version="1.1" id="Слой_2" xmlns="http://www.w3.org/2000/svg" xmlns:xlink="http://www.w3.org/1999/xlink" x="0px" y="0px"
	 viewBox="0 0 285 285" style="enable-background:new 0 0 285 285;" xml:space="preserve">
<style type="text/css">
	.st0{fill:none;stroke:#000000;stroke-width:7;stroke-miterlimit:10;}
	.st1{fill:none;stroke:#000000;stroke-width:4;stroke-miterlimit:10;}
	.st2{fill:none;stroke:#000000;stroke-width:6;stroke-miterlimit:10;}
	.st3{fill:none;stroke:#000000;stroke-width:6;stroke-linecap:round;stroke-miterlimit:10;}
</style>
<path class="st0" d="M179.5,114.9H65.3c-3.7,0-6.8-3.1-6.8-6.8V42.8c0-3.7,3.1-6.8,6.8-6.8h171.6c3.7,0,6.8,3.1,6.8,6.8v65.3
	c0,3.7-3.1,6.8-6.8,6.8h-21.2c-0.8,0-1.5,0.3-2.1,0.9l-14,14c-1.1,1.1-2.9,1.1-4,0l-14.1-14.1C181,115.2,180.3,114.9,179.5,114.9z"
	/>
<path class="st1" d="M102.1,78c-0.7,0.5-1,1.4-0.7,2.2l2.2,6.6l-5.7-4.1c-0.7-0.5-1.6-0.5-2.3,0l-5.7,4.1l2.2-6.6
	c0.3-0.8,0-1.7-0.7-2.2l-5.7-4.1h7c0.8,0,1.6-0.5,1.9-1.3l2.2-6.6l2.2,6.6c0.3,0.8,1,1.3,1.9,1.3h7L102.1,78z"/>
<path class="st1" d="M156.4,78c-0.7,0.5-1,1.4-0.7,2.2l2.2,6.6l-5.7-4.1c-0.7-0.5-1.6-0.5-2.3,0l-5.7,4.1l2.2-6.6
	c0.3-0.8,0-1.7-0.7-2.2l-5.7-4.1h7c0.8,0,1.6-0.5,1.9-1.3l2.2-6.6l2.2,6.6c0.3,0.8,1,1.3,1.9,1.3h7L156.4,78z"/>
<path class="st1" d="M212.2,78c-0.7,0.5-1,1.4-0.7,2.2l2.2,6.6l-5.7-4.1c-0.7-0.5-1.6-0.5-2.3,0l-5.7,4.1l2.2-6.6
	c0.3-0.8,0-1.7-0.7-2.2l-5.7-4.1h7c0.8,0,1.6-0.5,1.9-1.3l2.2-6.6l2.2,6.6c0.3,0.8,1,1.3,1.9,1.3h7L212.2,78z"/>
<circle class="st2" cx="94.9" cy="232.2" r="6.1"/>
<path class="st0" d="M108.6,248.9H83.1c-2.7,0-4.9-2.2-4.9-4.9v-61.3c0-2.7,2.2-4.9,4.9-4.9h25.5c2.7,0,4.9,2.2,4.9,4.9V244
	C113.5,246.7,111.3,248.9,108.6,248.9z"/>
<path class="st2" d="M112.7,180.1c0,0,22-10,27.4-18.7c4.8-7.7,8.9-29.2,9.7-34c0.1-0.6,0.6-1,1.2-1c4.8,0.3,23.8,3.7,8.8,43.7
	c-0.3,0.8,0.3,1.6,1.1,1.6H188"/>
<path class="st3" d="M181.3,171.7h25.1c5.4,0,9.8,4.4,9.8,9.7v0c0,5.4-4.4,9.8-10.5,9.8h-11.2"/>
<path class="st3" d="M197,191.2h9.3c5.4,0,9.8,4.4,9.8,9.7v0c0,5.4-4.4,9.8-10.5,9.8h-11.2"/>
<path class="st3" d="M195.8,210.7h5.1c5.4,0,9.7,4.3,9.7,9.6v0c0,5.3-4.4,9.6-10.5,9.6h-7.9"/>
<path class="st3" d="M198.4,229.8c5.4,0,9.7,4.3,9.7,9.6v0c0,5.3-4.4,9.6-10.5,9.6h-64.2c0,0-20,1.7-20-6.2"/>
</svg>
