<?xml version="1.0" encoding="utf-8"?>
<!-- Generator: Adobe Illustrator 21.1.0, SVG Export Plug-In . SVG Version: 6.00 Build 0)  -->
<svg version="1.1" id="Слой_1" xmlns="http://www.w3.org/2000/svg" xmlns:xlink="http://www.w3.org/1999/xlink" x="0px" y="0px"
	 viewBox="0 0 285 285" style="enable-background:new 0 0 285 285;" xml:space="preserve">
<style type="text/css">
	.st0{fill:none;stroke:#000000;stroke-width:7;stroke-linecap:round;stroke-miterlimit:10;}
	.st1{fill:none;stroke:#000000;stroke-width:3;stroke-linecap:round;stroke-miterlimit:10;}
</style>
<path class="st0" d="M224,242.5H71.5c-7.7,0-14-6.3-14-14V76c0-7.7,6.3-14,14-14H224c7.7,0,14,6.3,14,14v152.5
	C238,236.2,231.7,242.5,224,242.5z"/>
<circle class="st1" cx="73.3" cy="76.9" r="1.8"/>
<circle class="st1" cx="110.5" cy="76.9" r="1.8"/>
<circle class="st1" cx="147.8" cy="76.9" r="1.8"/>
<circle class="st1" cx="185" cy="76.9" r="1.8"/>
<circle class="st1" cx="222.2" cy="76.9" r="1.8"/>
<circle class="st1" cx="90.8" cy="92.7" r="1.8"/>
<circle class="st1" cx="128" cy="92.7" r="1.8"/>
<circle class="st1" cx="165.3" cy="92.7" r="1.8"/>
<circle class="st1" cx="202.5" cy="92.7" r="1.8"/>
<circle class="st1" cx="73.3" cy="106.7" r="1.8"/>
<circle class="st1" cx="110.5" cy="106.7" r="1.8"/>
<circle class="st1" cx="147.8" cy="106.7" r="1.8"/>
<circle class="st1" cx="185" cy="106.7" r="1.8"/>
<circle class="st1" cx="222.2" cy="106.7" r="1.8"/>
<circle class="st1" cx="90.8" cy="122.5" r="1.8"/>
<circle class="st1" cx="128" cy="122.5" r="1.8"/>
<circle class="st1" cx="165.3" cy="122.5" r="1.8"/>
<circle class="st1" cx="202.5" cy="122.5" r="1.8"/>
<circle class="st1" cx="73.3" cy="135.6" r="1.8"/>
<circle class="st1" cx="110.5" cy="135.6" r="1.8"/>
<circle class="st1" cx="147.8" cy="135.6" r="1.8"/>
<circle class="st1" cx="185" cy="135.6" r="1.8"/>
<circle class="st1" cx="222.2" cy="135.6" r="1.8"/>
<circle class="st1" cx="90.8" cy="151.4" r="1.8"/>
<circle class="st1" cx="128" cy="151.4" r="1.8"/>
<circle class="st1" cx="165.3" cy="151.4" r="1.8"/>
<circle class="st1" cx="202.5" cy="151.4" r="1.8"/>
<circle class="st1" cx="73.3" cy="165.4" r="1.8"/>
<circle class="st1" cx="110.5" cy="165.4" r="1.8"/>
<circle class="st1" cx="147.8" cy="165.4" r="1.8"/>
<circle class="st1" cx="185" cy="165.4" r="1.8"/>
<circle class="st1" cx="222.2" cy="165.4" r="1.8"/>
<circle class="st1" cx="90.8" cy="181.2" r="1.8"/>
<circle class="st1" cx="128" cy="181.2" r="1.8"/>
<circle class="st1" cx="165.3" cy="181.2" r="1.8"/>
<circle class="st1" cx="202.5" cy="181.2" r="1.8"/>
<circle class="st1" cx="73.3" cy="198.7" r="1.8"/>
<circle class="st1" cx="110.5" cy="198.7" r="1.8"/>
<circle class="st1" cx="147.8" cy="198.7" r="1.8"/>
<circle class="st1" cx="185" cy="198.7" r="1.8"/>
<circle class="st1" cx="222.2" cy="198.7" r="1.8"/>
<circle class="st1" cx="90.8" cy="214.5" r="1.8"/>
<circle class="st1" cx="128" cy="214.5" r="1.8"/>
<circle class="st1" cx="165.3" cy="214.5" r="1.8"/>
<circle class="st1" cx="202.5" cy="214.5" r="1.8"/>
<circle class="st1" cx="73.3" cy="228.5" r="1.8"/>
<circle class="st1" cx="110.5" cy="228.5" r="1.8"/>
<circle class="st1" cx="147.8" cy="228.5" r="1.8"/>
<circle class="st1" cx="185" cy="228.5" r="1.8"/>
<circle class="st1" cx="222.2" cy="228.5" r="1.8"/>
</svg>
