<?xml version="1.0" encoding="utf-8"?>
<!-- Generator: Adobe Illustrator 21.1.0, SVG Export Plug-In . SVG Version: 6.00 Build 0)  -->
<svg version="1.1" id="Слой_1" xmlns="http://www.w3.org/2000/svg" xmlns:xlink="http://www.w3.org/1999/xlink" x="0px" y="0px"
	 viewBox="0 0 285 285" style="enable-background:new 0 0 285 285;" xml:space="preserve">
<path d="M251.2,41L251.2,41c0-3.6-1.7-6.9-4.6-9c-2.7-2-6.3-2.5-9.5-1.4c-13.9,4.7-33.6,12.7-45.3,28.6c-1.9,2.5-3.4,5.3-4.7,8.2
	l0,0.3l-0.1,0.2l-0.1,0.1c-3.4,8.2-4,17.4-1.7,25.9c0,0.1,0,0.2,0.1,0.3l0.1,0.2c0.3,1.2,0.7,2.5,1.2,3.8c1.4,2.9,1.9,6.2,1.5,9.4
	l0,0.2c-1.5,5.6-8,8.1-14.7,9.8l-0.7,0.2l-0.5-0.5c-6-6.3-12.5-14.8-12.5-18.8c0.4-10.6-4.9-20.9-13.8-26.8c-0.6-0.4-1.3-0.7-2-1
	c-0.9-0.4-1.9-0.8-2.9-1c-4.2-1.2-8.7-0.5-12.4,2c-0.8,0.6-1.5,1.3-2,2.1l-0.3,0.4l-0.5,0.1c-6.9,0.9-12.8,5.8-14.9,12.4
	c-0.3,0.8-0.1,1.6,0.3,2.2c0.5,0.6,1.2,1,2,1c0.2,0,0.3,0,0.5,0c4.1-0.8,8.2-1,12.4-0.7l0.5,0l0.3,0.4c0.2,0.3,0.5,0.6,0.8,0.9
	c3.9,4,3.3,8.6-1.6,13.5l-13.7,13.7l-0.7-0.2c-6.7-1.8-13.2-4.2-14.7-9.8l0-0.2c-0.5-3.2,0-6.5,1.5-9.4c0.5-1.2,0.8-2.4,1.2-3.8
	l0-0.1c0-0.1,0.1-0.2,0.1-0.3c2.3-8.6,1.7-17.8-1.8-26.1c0,0,0-0.1-0.1-0.1c-1.3-3-2.9-5.9-4.8-8.5C81.4,43.3,61.7,35.2,47.8,30.6
	c-3.2-1.1-6.7-0.6-9.5,1.4c-2.9,2.1-4.6,5.4-4.6,9c0.3,2.6,1.4,5,3.2,6.8l0.5,0.5l-0.1,0.6c-1.2,6.5,0.1,13.2,3.8,18.8l0.3,0.4
	l-0.1,0.5c-0.9,6.1,0.3,12.3,3.6,17.5l0.2,0.4L45,86.8c-1,6.7,0.1,16.3,6.6,21.4l0.5,0.4l-0.1,0.7c-0.7,6.7,1.9,13.3,7,17.7l0.5,0.4
	l0,0.6c-0.6,7,3.6,13.7,10.2,16.2l0.8,0.3l0,0.8c0,5.9,2.1,11.6,6.1,16c2.7,2.7,6.1,4.6,9.8,5.5l2.4,0.6l-1.9,1.6
	c-6.8,5.4-12.3,12.3-16.2,20l0,0.1c-2.2,3.7-3.1,8-2.7,12.3L68,202l-9.2,7.7L48,206.1c-0.6-0.2-1.3-0.2-1.9,0.1
	c-0.6,0.3-1,0.8-1.2,1.4c-0.4,1.3,0.3,2.7,1.6,3.1l7.9,2.6l-5,4.2c-0.5,0.4-0.8,1-0.9,1.7c-0.1,0.7,0.1,1.3,0.6,1.8
	c0.4,0.5,1,0.8,1.7,0.9c0.7,0.1,1.3-0.1,1.8-0.6l4.9-4.1l2.2,6.6c0.4,1.3,1.8,2,3.1,1.6c1.3-0.4,2-1.8,1.6-3.1l-2.8-8.4l8.8-7.3
	l0.8,0.6c3.7,2.8,8.2,4.1,12.8,3.7l0.1,0c4.2,0,8.4-0.3,12.5-0.8l2.5-0.3l-1.3,2.1c-0.4,0.6-0.7,1.3-0.9,2.1
	c-0.6,1.5-0.5,3.2,0.3,4.6s2,2.5,3.6,2.9c1.2,0.4,2.4,0.5,3.7,0.5c3.5-0.1,7-0.8,10.3-2.1l2.9-1.1l-1.4,2.8
	c-3.7,7.4-6.2,17.2-1.1,20.3c0.9,0.5,1.8,0.8,2.9,0.8c3.8,0,8.7-3.5,13.4-9.6l1.7-2.2l0.4,2.7c1.4,8.8,4.8,14,9.1,14
	c4.3,0,7.7-5.2,9.1-14l0.5-2.7l1.7,2.2c4.8,6.1,9.7,9.6,13.4,9.6c1,0,2-0.3,2.9-0.8c5.1-3.1,2.6-12.9-1.1-20.3l-1.4-2.8l2.9,1.1
	c3.3,1.3,6.8,2,10.3,2.1c1.2,0,2.5-0.2,3.7-0.5c1.5-0.4,2.9-1.5,3.6-2.9c0.7-1.4,0.8-3.1,0.3-4.6c-0.2-0.7-0.6-1.4-0.9-2l-1.3-2.1
	l2.5,0.3c4.2,0.5,8.4,0.8,12.5,0.9l0.1,0c4.6,0.4,9.1-1,12.8-3.8l0.8-0.6l8.8,7.3l-2.8,8.5c-0.2,0.6-0.2,1.3,0.1,1.9
	c0.3,0.6,0.8,1,1.4,1.2c0.6,0.2,1.3,0.2,1.9-0.1c0.6-0.3,1-0.8,1.2-1.4l2.2-6.6l4.9,4.1c0.7,0.6,1.6,0.7,2.4,0.4
	c0.8-0.3,1.4-1,1.6-1.9s-0.2-1.7-0.8-2.3l-5-4.2l7.9-2.6c1.3-0.4,2-1.8,1.6-3.1c-0.2-0.6-0.6-1.1-1.2-1.4s-1.2-0.3-1.9-0.1
	l-10.8,3.6L217,202l0.1-0.6c0.4-4.3-0.5-8.5-2.7-12.3l0-0.1c-3.8-7.7-9.4-14.7-16.2-20l-1.9-1.5l2.4-0.6c3.7-0.9,7.1-2.8,9.8-5.5
	c4-4.4,6.1-10,6.1-15.9l0-0.8l0.8-0.3c2.9-1.1,5.4-3,7.3-5.6c1.7-2.7,3.2-7.1,3-10.6l0-0.6l0.5-0.4c5-4.4,7.6-11.1,7-17.7l-0.1-0.7
	l0.5-0.4c6.5-5.1,7.6-14.7,6.6-21.4l-0.1-0.4l0.2-0.4c3.2-5.2,4.5-11.5,3.6-17.5l-0.1-0.5l0.3-0.4c3.6-5.6,5-12.2,3.8-18.8l-0.1-0.6
	l0.5-0.5C249.8,46,251,43.5,251.2,41z M129.5,107.5c9.9-9.9,4.4-17.6,1.5-20.5c-0.4-0.4-0.7-0.7-1-1.2c0,0-0.1-0.1-0.1-0.1
	c-0.1-0.1-0.2-0.3-0.3-0.3l-0.1-0.1c-0.1-0.1-0.1-0.1-0.2-0.2l-0.1-0.1c-0.1,0-0.1-0.1-0.2-0.1l-0.2-0.1c-0.1-0.1-0.3-0.1-0.5-0.2
	l-0.2,0c-2.5-0.4-5.1-0.5-7.7-0.4l-3.8,0.2l3-2.4c2.3-1.8,5-2.9,8-3c0.1,0,0.3,0,0.5-0.1c0.9-0.1,1.6-0.7,1.9-1.5l0.1-0.2
	c0.4-0.6,0.8-1.1,1.3-1.5l0.1-0.1c2.4-1.6,5.4-2,8.2-1.2c0.7,0.2,1.5,0.5,2.2,0.8c0.5,0.2,1,0.5,1.5,0.8
	c8.3,4.8,11.3,15.1,11.3,22.5c0,3.9,3.4,10.2,9.7,17.5l1.7,2h-47L129.5,107.5L129.5,107.5z M74.1,140.5l-0.3-0.1
	c-0.1,0-0.2-0.1-0.3-0.1c-4.5-0.7-8.1-4.2-8.8-8.7l-0.3-1.4h1.6c1.2,0,2.3-0.9,2.4-2.1c0.2-1.2-0.6-2.4-1.8-2.7
	c-1.2-0.3-2.3-0.8-3.4-1.5c-3.8-2.6-6-6.8-6-11.4l0-1.2h1.2c0.1,0,0.2,0,0.3,0l0.1,0l0.1,0c1.2-0.1,2.2-1,2.3-2.1
	c0.2-1.2-0.6-2.4-1.8-2.7c-5.9-1.5-9.3-6.5-9.6-14l-0.1-2l1.8,0.8c0.9,0.4,1.9,0.8,3,1.1c0.2,0,0.4,0.1,0.6,0.1
	c1.2,0,2.3-0.9,2.4-2.1c0.2-1.2-0.6-2.4-1.8-2.7c-5.8-1.5-9.2-6.4-9.6-13.8l-0.1-1.9l1.8,0.8c0.8,0.4,1.7,0.6,2.6,0.9
	c0.2,0.1,0.4,0.1,0.6,0.1c1.2,0,2.3-0.9,2.4-2.1c0.2-1.2-0.6-2.4-1.8-2.7c-6-1.5-9.4-6.6-9.6-14.4l-0.1-2.3l1.9,1.2
	c3.1,2,6.4,3.6,9.8,5c0.6,0.3,1.3,0.3,1.9,0c0.6-0.3,1.1-0.7,1.3-1.3c0.2-0.6,0.2-1.3,0-1.9c-0.3-0.6-0.7-1.1-1.3-1.3
	C44,49.1,40.3,44.6,39.1,42.3L39,42.1L38.7,42l0-1c0-2,0.9-3.9,2.5-5c1.5-1.1,3.3-1.4,5.1-0.8c5.6,1.9,11.2,4.1,16.6,6.6l0.4,0.2
	l0.2,0.4c2,5,3.7,10.2,4.9,15.5c1.3,5.1,2.1,10.3,2.5,15.5c0.2,4.8,0,9.6-0.6,14.4l-0.2,2.5c-1.7,12.8,2,25.9,10.2,35.9
	c5.6,6.3,13,10.6,21.2,12.5c1.5,0.4,2.9,0.7,4.4,1l0.7,0.2c0.9,0.2,1.7,0.4,2.6,0.6l1.6,0.4v11l-0.6,0.4
	c-5.3,3.1-10.5,6.6-15.5,10.3l-0.3,0.2l-0.4,0c-5.1,0.2-10.1-1.5-13.8-5l-0.1-0.1c-3.3-3.8-4.9-8.6-4.7-13.7l0-0.2l0.1-0.2
	c0-0.1,0.1-0.1,0.1-0.2l0-0.1C76,142.2,75.3,140.9,74.1,140.5z M93.4,97.8c-1.5,3.5-1.8,7.4-1,11.1l0,0c0.4,1.4,1,2.7,1.8,3.9
	l0.8,1.1l-1.2,0.6c-3.9,2.1-8.4,3.2-12.9,3l-0.7,0l-0.3-0.6c-3.5-6.5-5.2-13.8-5-21.1l0-1.5l1.5,0.3c4.1,1,8.4,1.5,12.7,1.4
	c1,0,2.2,0,3.2-0.1l1.9-0.1L93.4,97.8z M110.7,135.9l-2.2-0.5c-0.3-0.1-0.6-0.2-1-0.2l-0.2,0c-1.6-0.4-3.2-0.7-4.8-1.1
	c-6.5-1.6-12.5-4.9-17.3-9.7l-1.8-1.8l2.5-0.3c4.3-0.5,8.4-2,11.9-4.5l0.6-0.5l0.7,0.4c3.3,1.9,6.8,3.4,10.6,4.3l0.9,0.2V135.9z
	 M95.6,90.1L95.4,91l-0.9,0.1c-6.2,0.7-12.4,0.2-18.4-1.4l-0.9-0.2l0-1.1c0.6-4.9,0.8-9.8,0.6-14.8l-0.1-1.7l1.6,0.4
	c2.1,0.6,4.2,0.8,6.4,0.8c3.1,0,6.3-0.5,9.3-1.3l1.1-0.3l0.4,1.1C96.3,78.3,96.7,84.3,95.6,90.1z M90.7,67.4
	c-2.5,0.6-4.9,0.9-7.1,0.9c-4.4,0-7-1.2-8.2-1.9L75,66.1L75,65.5c-0.5-3-1-5.8-1.8-8.7c-0.7-2.7-1.4-5.3-2.2-8.1l-1-3.1l2.8,1.7
	c6.4,3.9,11.9,8.8,16.5,14.8c0.8,1.1,1.6,2.3,2.3,3.5l0.8,1.4L90.7,67.4z M115.6,140v-17.1h53.8V140H115.6z M135.8,213.3
	c-0.7,2.6-1.6,5.1-2.8,7.4c0,0.1-0.1,0.2-0.1,0.2l-0.1,0.2c-0.6,1.3-1.3,2.5-2,3.7c-5.3,8.8-10.4,12.1-12.3,12.6l-1.3,0l-0.2-1
	c-0.6-2.7,0.8-9.1,5.5-16.7c1.3-2.2,2.9-4.4,4.5-6.4l0.5-0.5c0.8-1,1.7-1.9,2.7-2.8l0.7-0.6l0.8,0.4c1.1,0.6,2.3,1.3,3.6,1.8
	l0.9,0.4L135.8,213.3z M110.7,157.7v18.9c0.1,3.3,1.4,6.5,3.7,8.9l0.3,0.3l0.1,0.4c0.6,3.2,1.6,6.4,3.1,9.3l0.6,1.2l-1.2,0.5
	c-1.6,0.6-3.2,1.4-4.8,2.2c-2.1,1.1-4.2,2.3-6.1,3.7l-0.2,0.1l-0.2,0.1c-7.2,1.7-14.6,2.6-22,2.7c-5.6,0-9.2-1.3-10.6-3.7
	c-2.3-4,1.6-10.9,1.7-10.9c0.1-0.1,0.1-0.3,0.2-0.4c5.1-12.7,23.3-25.6,33.7-32.1L110.7,157.7z M125.4,184.3l-1.1,0.1
	c-2.2,0.3-4.5-0.4-6.2-1.9c-1.7-1.5-2.6-3.6-2.6-5.9v-31.7h9.8V184.3z M144.9,188.9v-44.1h9.8v40.2l-0.9,0.2
	c-2.5,0.6-4.8,1.5-7.1,2.7L144.9,188.9z M141.7,196.1c0.5,0.2,1.1,0.2,1.7,0c0.1-0.1,0.2-0.1,0.3-0.2l0.2-0.1
	c0.1-0.1,0.2-0.1,0.4-0.2c4.6-3.9,10.5-6,16.6-6.1c0.6,0,1.2-0.1,1.8-0.2l2.1-0.3l-0.8,2c-3.6,9.2-11.6,16.2-21.2,18.6l-0.3,0.1
	l-0.3-0.1c-9.6-2.4-17.5-9.4-21.2-18.6l-0.8-2l2.1,0.3c0.6,0.1,1.2,0.2,1.9,0.2c6,0.1,11.9,2.3,16.5,6.1l0,0
	c0.1,0.1,0.2,0.2,0.3,0.2l0.2,0.1C141.4,195.9,141.5,196,141.7,196.1z M160.7,184.4l-1.1-0.1v-39.4h9.8v31.7
	c0.1,2.2-0.9,4.4-2.5,5.9C165.2,184,162.9,184.7,160.7,184.4z M114.7,203.7c1.8-0.9,3.7-1.8,5.7-2.4l0.8-0.3l0.5,0.7
	c1.2,1.5,2.6,3,4,4.2l1,0.9l-0.9,0.9c-0.6,0.6-1.2,1.1-1.7,1.8l-0.3,0.2c-1.5,1-3.1,1.9-4.6,2.7c-8.2,4.2-13.6,4.5-15.1,4.5
	c-0.7,0-1.2-0.1-1.7-0.2l-1.6,0l0.5-1.6C102,213,106.2,208.1,114.7,203.7z M137.7,222.8l0-0.4l0.1-0.2c1.1-2.2,1.9-4.5,2.6-6.9
	l0.3-1.2l1.2,0.3c0.2,0.1,0.4,0.1,0.7,0.1c0.2,0,0.4,0,0.6-0.1l1.2-0.3l0.3,1.2c0.6,2.4,1.5,4.7,2.6,6.9l0.1,0.2l0,0.4
	c0,0.7,0,1.4,0,2.1c0,8.9-2.1,15.1-4,17.1l-0.9,0.9l-0.9-0.9c-1.9-2-4-8.2-4-17.1C137.6,224.2,137.6,223.5,137.7,222.8z
	 M149.8,211.9c1.3-0.6,2.5-1.2,3.6-1.8l0.8-0.5l0.7,0.6c1,0.9,1.9,1.8,2.7,2.8l0.4,0.4c1.7,2,3.3,4.2,4.6,6.5
	c4.6,7.6,6.1,14,5.5,16.7l-0.3,1.2l-1.2-0.3c-2.7-0.7-7.7-4.9-12.4-12.6c-0.8-1.2-1.5-2.5-2.1-3.8l0-0.1c0-0.1-0.1-0.2-0.1-0.3
	c-1.2-2.3-2.1-4.8-2.7-7.4l-0.2-1L149.8,211.9z M159.5,208l-1.2-1.2l1-0.9c1.5-1.3,2.8-2.7,4-4.2l0.5-0.7l0.8,0.3
	c1.9,0.7,3.8,1.5,5.6,2.4c8.5,4.4,12.7,9.3,13.4,11.5l0.4,1.2l-1.2,0.4h0c-0.3,0.1-0.9,0.2-2,0.2c-1.5,0-6.9-0.3-15.1-4.6
	c-1.6-0.8-3.2-1.7-4.7-2.7l-0.1-0.1l-0.1-0.1C160.4,208.9,160,208.4,159.5,208z M172.5,199.4c-1.5-0.8-3.1-1.5-4.7-2.1l-1.2-0.5
	l0.6-1.2c1.5-3,2.5-6.1,3.1-9.3l0.1-0.4l0.3-0.3c2.3-2.4,3.6-5.6,3.7-9l0-18.9l1.9,1.2c10.4,6.6,28.7,19.4,33.7,32.1l0,0
	c0,0.1,0.1,0.2,0.2,0.3c0,0.1,4,6.9,1.7,11c-1.3,2.4-5,3.7-10.6,3.7c-7.4-0.1-14.8-1-22-2.7l-0.2-0.1l-0.2-0.1
	C176.7,201.7,174.6,200.5,172.5,199.4z M140.1,144.9v44.1l-1.8-0.9c-2.2-1.2-4.6-2.1-7.1-2.7l-0.9-0.2v-40.2H140.1z M192.7,109
	c0.8-3.7,0.4-7.6-1-11.1l-0.7-1.8l1.9,0.1c1.1,0,2.2,0.1,3.2,0.1c4.3,0.1,8.6-0.4,12.7-1.4l1.5-0.3l0,1.5c0.2,7.3-1.6,14.6-5,21
	l-0.7,0.8c-0.6,0-2.2-0.1-3.2-0.1c-3.6-0.3-7-1.3-10.1-3l-1.2-0.6l0.8-1.1C191.7,111.7,192.3,110.4,192.7,109z M214.1,48.7
	c-0.9,2.7-1.6,5.4-2.2,8.1c-0.7,3-1.3,5.9-1.8,8.7L210,66l-0.5,0.3c-1.2,0.7-3.8,2-8.2,2c-2.2,0-4.6-0.3-7.1-0.9l-1.6-0.4l0.8-1.4
	c0.7-1.2,1.5-2.4,2.3-3.5c4.6-5.9,10.1-10.9,16.5-14.8l2.8-1.7L214.1,48.7z M207.6,72.3l1.6-0.4l-0.1,1.7c-0.2,4.9,0,9.9,0.6,14.7
	l0,1.2l-0.9,0.2c-6,1.6-12.3,2-18.4,1.4l-0.9-0.1l-0.2-0.9c-1.1-5.8-0.7-11.9,1.1-17.5l0.4-1.1l1.1,0.3c3,0.9,6.2,1.3,9.3,1.3
	C203.4,73.2,205.6,72.9,207.6,72.3z M201.5,122.6l-1.8,1.8c-4.8,4.8-10.8,8.1-17.3,9.7c-1.6,0.4-3.2,0.7-4.9,1.1
	c-0.3,0.1-0.6,0.1-0.8,0.2c-0.3,0.1-0.6,0.1-0.9,0.2l-1.5,0.3l0-13.6l0.9-0.2c3.7-0.9,7.3-2.4,10.6-4.3l0.7-0.4l0.6,0.5
	c3.5,2.5,7.6,4,11.9,4.5L201.5,122.6z M209.6,141.7c-0.3,0.5-0.3,1.2-0.2,1.7l0,0.1c0,0.1,0.1,0.1,0.1,0.2l0.1,0.2l0,0.2
	c0.3,5-1.4,9.9-4.6,13.6l-0.1,0.1c-3.8,3.4-8.7,5.2-13.8,4.9l-0.4,0l-0.3-0.2c-5-3.7-10.2-7.2-15.5-10.3l-0.6-0.4v-11l2-0.5
	c0.7-0.2,1.5-0.4,2.2-0.5c1.7-0.4,3.4-0.8,5-1.2c8.2-1.9,15.5-6.2,21.2-12.5c8.2-10,11.9-23.1,10.2-35.9l-0.2-2.5
	c-0.6-4.8-0.8-9.6-0.6-14.4c0.4-5.2,1.3-10.4,2.5-15.5c1.2-5.2,2.9-10.4,4.9-15.4l0.2-0.4l0.4-0.2c5.4-2.5,11-4.8,16.6-6.6
	c1.7-0.6,3.6-0.3,5.1,0.8c1.5,1.1,2.5,2.9,2.5,4.8c0,0.1-0.4,6.3-16.8,13.1c-0.6,0.2-1.1,0.7-1.3,1.3c-0.3,0.6-0.3,1.3,0,1.9
	c0.2,0.6,0.7,1.1,1.3,1.3c0.6,0.3,1.3,0.3,1.9,0c3.4-1.4,6.7-3.1,9.9-5l1.9-1.2l-0.1,2.3c-0.2,7.7-3.6,12.9-9.6,14.4
	c-1.2,0.3-2.1,1.5-1.9,2.7c0.2,1.2,1.2,2.1,2.4,2.1c0.3,0,0.5,0,0.7-0.1c0.9-0.2,1.7-0.5,2.6-0.9l1.8-0.8l-0.1,1.9
	c-0.3,7.4-3.7,12.3-9.6,13.8c-1.2,0.3-2,1.5-1.8,2.7c0.2,1.4,1.6,2.4,3.1,2.1c1-0.3,2-0.6,3-1.1l1.8-0.8l-0.1,2
	c-0.3,7.5-3.7,12.5-9.6,14c-1.2,0.3-2,1.5-1.8,2.7c0.2,1.2,1.1,2.1,2.4,2.1c0.1,0,0.1,0,0.2,0l1.3-0.1l0,1.3c0,4.6-2.3,8.9-6.2,11.5
	c-1,0.6-2.1,1.1-3.3,1.3c-1.2,0.3-2,1.4-1.8,2.7c0.2,1.2,1.2,2.1,2.4,2.1h1.6l-0.3,1.4c-0.3,1.7-1.1,6.3-5.3,7.9l-2.2,0.5
	c-0.4,0.1-0.9,0.2-1.4,0.3c-0.1,0-0.2,0.1-0.3,0.1l-0.3,0.1C210.3,140.7,209.8,141.1,209.6,141.7z M211.2,140.9L211.2,140.9
	L211.2,140.9L211.2,140.9z"/>
</svg>
