<?xml version="1.0" encoding="utf-8"?>
<!-- Generator: Adobe Illustrator 21.1.0, SVG Export Plug-In . SVG Version: 6.00 Build 0)  -->
<svg version="1.1" id="Слой_1" xmlns="http://www.w3.org/2000/svg" xmlns:xlink="http://www.w3.org/1999/xlink" x="0px" y="0px"
	 viewBox="0 0 285 285" style="enable-background:new 0 0 285 285;" xml:space="preserve">
<style type="text/css">
	.st0{fill:none;stroke:#000000;stroke-width:7;stroke-linecap:round;stroke-miterlimit:10;}
	.st1{fill:none;stroke:#000000;stroke-width:5;stroke-linecap:round;stroke-miterlimit:10;}
</style>
<line class="st0" x1="9.5" y1="242.5" x2="49.5" y2="242.5"/>
<line class="st0" x1="122.5" y1="242.5" x2="162.5" y2="242.5"/>
<line class="st0" x1="235.5" y1="242.5" x2="275.5" y2="242.5"/>
<g>
	<path class="st0" d="M27.2,242h4.2c2.6,0,4.7-2.1,4.7-4.7V38.7c0-2.6-2.1-4.7-4.7-4.7h-4.2c-2.6,0-4.7,2.1-4.7,4.7v198.7
		C22.5,239.9,24.6,242,27.2,242z"/>
	<path class="st0" d="M140.2,242h4.2c2.6,0,4.7-2.1,4.7-4.7V38.7c0-2.6-2.1-4.7-4.7-4.7h-4.2c-2.6,0-4.7,2.1-4.7,4.7v198.7
		C135.5,239.9,137.6,242,140.2,242z"/>
	<path class="st0" d="M253.2,242h4.2c2.6,0,4.7-2.1,4.7-4.7V38.7c0-2.6-2.1-4.7-4.7-4.7h-4.2c-2.6,0-4.7,2.1-4.7,4.7v198.7
		C248.5,239.9,250.6,242,253.2,242z"/>
</g>
<g>
	<line class="st1" x1="36.5" y1="52.5" x2="135.5" y2="52.5"/>
	<line class="st1" x1="36.5" y1="73.3" x2="135.5" y2="73.3"/>
	<line class="st1" x1="36.5" y1="94" x2="135.5" y2="94"/>
	<line class="st1" x1="36.5" y1="114.8" x2="135.5" y2="114.8"/>
	<line class="st1" x1="36.5" y1="135.5" x2="135.5" y2="135.5"/>
	<line class="st1" x1="36.5" y1="156.3" x2="135.5" y2="156.3"/>
	<line class="st1" x1="36.5" y1="177" x2="135.5" y2="177"/>
	<line class="st1" x1="36.5" y1="197.8" x2="135.5" y2="197.8"/>
	<line class="st1" x1="36.5" y1="218.5" x2="135.5" y2="218.5"/>
</g>
<line class="st0" x1="149.5" y1="52.5" x2="248.5" y2="52.5"/>
<line class="st0" x1="184.5" y1="54" x2="184.5" y2="101.5"/>
<line class="st0" x1="217" y1="54" x2="217" y2="101.5"/>
<circle class="st0" cx="184.5" cy="114.5" r="11"/>
<circle class="st0" cx="217" cy="114.5" r="11"/>
</svg>
