<?xml version="1.0" encoding="utf-8"?>
<!-- Generator: Adobe Illustrator 21.1.0, SVG Export Plug-In . SVG Version: 6.00 Build 0)  -->
<svg version="1.1" id="Слой_1" xmlns="http://www.w3.org/2000/svg" xmlns:xlink="http://www.w3.org/1999/xlink" x="0px" y="0px"
	 viewBox="0 0 285 285" style="enable-background:new 0 0 285 285;" xml:space="preserve">
<g>
	<path d="M149.5,122.1c25.7,0,46.6-20.9,46.6-46.6S175.2,29,149.5,29S103,49.9,103,75.6S123.9,122.1,149.5,122.1z M149.5,35.3
		c22.2,0,40.3,18.1,40.3,40.3c0,22.2-18.1,40.3-40.3,40.3c-22.2,0-40.3-18.1-40.3-40.3C109.2,53.3,127.3,35.3,149.5,35.3z"/>
	<path d="M199.8,122.6H99.5c-10.9,0-19.8,8.9-19.8,19.8v96.9c0,1.7,1.4,3.1,3.1,3.1c1.7,0,3.1-1.4,3.1-3.1v-96.9
		c0-7.5,6.1-13.6,13.6-13.6h24.6l22.6,58.1c1,2.6,4.8,2.6,5.8,0l22.6-58.1h24.6c7.5,0,13.6,6.1,13.6,13.6v96.9
		c0,1.7,1.4,3.1,3.1,3.1s3.1-1.4,3.1-3.1v-96.9C219.6,131.5,210.7,122.6,199.8,122.6z M139.2,150.2l-8.3-21.4h6.3l2.6,10.5
		L139.2,150.2z M149.6,177.2l-5.1-13c0-0.2,0.1-0.3,0.1-0.5l1.3-21.5h7.5l1.3,21.8c0,0.1,0,0.2,0,0.2L149.6,177.2z M153.9,135.9
		h-8.5l-1.8-7.1h12L153.9,135.9z M160.1,150.2l-0.6-10.9l2.6-10.5h6.3L160.1,150.2z"/>
	<circle cx="149.6" cy="199" r="3.1"/>
	<circle cx="149.6" cy="212.4" r="3.1"/>
	<circle cx="149.6" cy="225.3" r="3.1"/>
	<path d="M189.7,162.7c-1.7,0-3.1,1.4-3.1,3.1v21.6v5.1v45c0,2.7,1.4,4.9,3.1,4.9s3.1-2.2,3.1-4.9v-45v-5.1v-21.6
		C192.9,164.1,191.5,162.7,189.7,162.7z"/>
	<path d="M109.5,162.7c-1.7,0-3.1,1.4-3.1,3.1v73.5c0,1.7,1.4,3.1,3.1,3.1c1.7,0,3.1-1.4,3.1-3.1v-73.5
		C112.7,164.1,111.3,162.7,109.5,162.7z"/>
	<path d="M136,85.5c-1.6,0-3.3,0-4.9,0c0,1.7,0,3.3,0,4.9c1.6,0,3.3,0,4.9,0c0,3.3,0,6.6,0,9.8c1.7,0,3.3,0,4.9,0c0-3.3,0-6.6,0-9.9
		c4.1,0,8.2,0,12.3,0c0-1.7,0-3.3,0-4.9c-4.1,0-8.2,0-12.3,0c0-1.6,0-3.3,0-4.9c0.1,0,0.2,0,0.3,0c4.9,0,9.8,0,14.7,0
		c1.5,0,2.9-0.2,4.4-0.7c2.9-1,5.3-2.6,7.2-5c2.7-3.5,3.7-7.5,2.8-11.9c-0.6-3.1-2.1-5.8-4.4-8c-2.8-2.6-6.1-4-9.9-4
		c-6.6,0-13.2,0-19.7,0c-0.1,0-0.1,0-0.2,0c0,8.2,0,16.4,0,24.7c-1.7,0-3.3,0-4.9,0c0,1.6,0,3.3,0,4.9c1.6,0,3.3,0,4.9,0
		C136,82.2,136,83.8,136,85.5z M140.9,55.8c0.1,0,0.2,0,0.3,0c4.9,0,9.8,0,14.7,0c4.3,0,8.2,3,9.3,7.1c1.1,4-0.2,8-3.5,10.6
		c-1.4,1.1-2.9,1.7-4.7,1.9c-0.5,0.1-1,0.1-1.5,0.1c-4.7,0-9.5,0-14.2,0c-0.1,0-0.2,0-0.3,0C140.9,69,140.9,62.4,140.9,55.8z"/>
</g>
</svg>
