<?xml version="1.0" encoding="utf-8"?>
<!-- Generator: Adobe Illustrator 21.1.0, SVG Export Plug-In . SVG Version: 6.00 Build 0)  -->
<svg version="1.1" id="Слой_1" xmlns="http://www.w3.org/2000/svg" xmlns:xlink="http://www.w3.org/1999/xlink" x="0px" y="0px"
	 viewBox="0 0 285 285" style="enable-background:new 0 0 285 285;" xml:space="preserve">
<style type="text/css">
	.st0{fill:none;stroke:#000000;stroke-width:7;stroke-linecap:round;stroke-miterlimit:10;}
	.st1{fill:none;stroke:#000000;stroke-width:5;stroke-linecap:round;stroke-miterlimit:10;}
</style>
<line class="st0" x1="121.5" y1="243.5" x2="161.5" y2="243.5"/>
<line class="st0" x1="235.5" y1="243.5" x2="275.5" y2="243.5"/>
<line class="st0" x1="9.5" y1="243.5" x2="49.5" y2="243.5"/>
<g>
	<path class="st0" d="M27.2,243h4.2c2.6,0,4.7-2.1,4.7-4.7V39.7c0-2.6-2.1-4.7-4.7-4.7h-4.2c-2.6,0-4.7,2.1-4.7,4.7v198.7
		C22.5,240.9,24.6,243,27.2,243z"/>
	<path class="st0" d="M140.2,243h4.2c2.6,0,4.7-2.1,4.7-4.7V39.7c0-2.6-2.1-4.7-4.7-4.7h-4.2c-2.6,0-4.7,2.1-4.7,4.7v198.7
		C135.5,240.9,137.6,243,140.2,243z"/>
	<path class="st0" d="M253.2,243h4.2c2.6,0,4.7-1.6,4.7-3.5v-148c0-1.9-2.1-3.5-4.7-3.5h-4.2c-2.6,0-4.7,1.6-4.7,3.5v148
		C248.5,241.4,250.6,243,253.2,243z"/>
</g>
<g>
	<line class="st1" x1="36.5" y1="53.5" x2="135.5" y2="53.5"/>
	<line class="st1" x1="36.5" y1="74.3" x2="135.5" y2="74.3"/>
	<line class="st1" x1="36.5" y1="95" x2="135.5" y2="95"/>
	<line class="st1" x1="36.5" y1="115.8" x2="135.5" y2="115.8"/>
	<line class="st1" x1="36.5" y1="136.5" x2="135.5" y2="136.5"/>
	<line class="st1" x1="36.5" y1="157.3" x2="135.5" y2="157.3"/>
	<line class="st1" x1="36.5" y1="178" x2="135.5" y2="178"/>
	<line class="st1" x1="36.5" y1="198.8" x2="135.5" y2="198.8"/>
	<line class="st1" x1="36.5" y1="219.5" x2="135.5" y2="219.5"/>
</g>
<line class="st1" x1="149.5" y1="102.5" x2="248.5" y2="102.5"/>
</svg>
