<?xml version="1.0" encoding="utf-8"?>
<!-- Generator: Adobe Illustrator 21.1.0, SVG Export Plug-In . SVG Version: 6.00 Build 0)  -->
<svg version="1.1" id="Слой_1" xmlns="http://www.w3.org/2000/svg" xmlns:xlink="http://www.w3.org/1999/xlink" x="0px" y="0px"
	 viewBox="0 0 285 285" style="enable-background:new 0 0 285 285;" xml:space="preserve">
<style type="text/css">
	.st0{fill:none;stroke:#000000;stroke-width:7;stroke-miterlimit:10;}
</style>
<path class="st0" d="M119.7,203l-34.1-34.1c-1.2-1.2-1.2-3.1,0-4.2l7.8-7.8c1.2-1.2,3.1-1.2,4.2,0l34.1,34.1c1.2,1.2,1.2,3.1,0,4.2
	l-7.8,7.8C122.8,204.2,120.9,204.2,119.7,203z"/>
<path class="st0" d="M50.6,253.8L34.8,238c-1.2-1.2-1.2-3.1,0-4.2L90.5,178c1.2-1.2,3.1-1.2,4.2,0l15.9,15.9c1.2,1.2,1.2,3.1,0,4.2
	l-55.7,55.7C53.7,255,51.8,255,50.6,253.8z"/>
<line class="st0" x1="127.6" y1="147.1" x2="107.7" y2="167"/>
<polyline class="st0" points="161.2,141.2 217.2,85.3 231.4,82.9 254,46.3 248.1,40.5 242.3,34.6 205.7,57.2 203.3,71.4 
	147.4,127.4 "/>
<line class="st0" x1="121.6" y1="180.9" x2="141.5" y2="161"/>
<path class="st0" d="M173.2,192.8l7.9,7.9c0.7,0.7,1,1.8,0.6,2.7c-5.5,15.5,0.3,33.2,14.7,42.3c11.4,7.2,25.3,7.1,36.3,1.1
	c0,0,0-0.1,0-0.1l-22.6-14.2c-5.6-3.5-7.3-11-3.8-16.6l5.6-8.9c3.5-5.6,11-7.3,16.6-3.8l22.6,14.2c0,0,0.1,0,0.1,0
	c0.6-12.2-5-24.4-15.8-31.7c-9.9-6.6-22-7.6-32.4-3.7c-0.6,0.2-1.2,0.1-1.6-0.3c-1.3-1.3-4.3-4.3-8.5-8.5c0,0-84.1-84.1-84.1-84.1
	c-0.7-0.7-1-1.8-0.6-2.7c5.5-15.5-0.3-33.2-14.7-42.3c-11.4-7.2-25.3-7.1-36.3-1.1c0,0,0,0.1,0,0.1l22.6,14.2
	c5.6,3.5,7.3,11,3.8,16.6L78,82.7c-3.5,5.6-11,7.3-16.6,3.8L38.8,72.3c0,0-0.1,0-0.1,0c-0.6,12.2,5,24.4,15.8,31.7
	c9.9,6.6,22,7.6,32.4,3.7c0.6-0.2,1.2-0.1,1.6,0.3C97,116.5,173.2,192.8,173.2,192.8"/>
</svg>
