<?xml version="1.0" encoding="UTF-8"?>
<svg width="140px" height="135px" viewBox="0 0 140 135" version="1.1" xmlns="http://www.w3.org/2000/svg" xmlns:xlink="http://www.w3.org/1999/xlink">
    <!-- Generator: Sketch 52 (66869) - http://www.bohemiancoding.com/sketch -->
    <title>Artboard</title>
    <desc>Created with Sketch.</desc>
    <g id="Artboard" stroke="none" stroke-width="1" fill="none" fill-rule="evenodd">
        <g id="advantage-1" transform="translate(1.700000, 6.800000)">
            <g id="Group" transform="translate(0.000000, 96.000000)" stroke-linecap="round" stroke-width="5">
                <path d="M0.8,29.7 L123.4,29.7" id="Path" stroke="#000000"></path>
                <path d="M0.8,15.3 L123.4,15.3" id="Path" stroke="#000000"></path>
                <path d="M0.8,0.9 L123.4,0.9" id="Path" stroke="#F7CF2D"></path>
            </g>
            <path d="M96.9,17.4 C96,17.4 95.3,18.1 95.3,19 C95.3,19.9 96,20.6 96.9,20.6 C97.8,20.6 98.5,19.9 98.5,19 C98.5,18.1 97.8,17.4 96.9,17.4 Z" id="Path" fill="#F7CF2D"></path>
            <path d="M107.9,24.7 L103.9,16.6 C102.2,13.1 98.7,11 94.8,11 C91.6,11 88.6,12.5 86.7,15 L82.2,20.1 C81,18.4 79.2,17.1 77.2,16.5 L69.1,14.2 C62.9,12.4 56.9,7.7 52.5,1.1 C52.1,0.5 51.4,0.3 50.7,0.5 C50,0.7 49.6,1.3 49.6,2 L49.6,10.6 C49.6,14.6 50.2,18.6 51.4,22.4 C50.2,22.7 48.9,23 47.7,23.2 C45.3,23.6 42.8,23.8 40.3,23.8 L27.9,23.8 C27.3,23.8 26.8,24.1 26.5,24.6 C26.2,25.1 26.2,25.7 26.5,26.2 L36.1,41.5 C40.2,48.1 47.2,52.2 55,52.5 L39.4,70 C37,72.4 37.9,76.5 41,77.8 L49.5,82 C49.5,82 49.6,82 49.6,82.1 C52.1,83.1 54.8,81.9 55.8,79.4 L61.7,65.4 L73.4,65.4 C86.9,65.4 98.4,54.4 98.4,41.4 L98.4,31.8 C98.4,29.2 100.6,27 103.2,27 L106.4,27 C107,27 107.5,26.7 107.8,26.2 C108.1,25.7 108.2,25.1 107.9,24.7 Z M52.7,6.8 C57.1,12 62.6,15.7 68.2,17.3 L76.3,19.6 C77.9,20.1 79.2,21.1 80,22.6 L75.7,27.4 L68.2,22.9 C65,21 61.1,20.2 57.3,20.8 C56.1,21 55.3,21.2 54.4,21.5 C53.3,18 52.7,14.3 52.7,10.6 L52.7,6.8 Z M103.3,23.8 C98.9,23.8 95.3,27.4 95.3,31.8 L95.3,41.4 C95.3,52.7 85.3,62.2 73.5,62.2 L60.7,62.2 C56.1,62.2 52,64.7 50,68.8 L49.7,69.5 C49.3,70.3 49.6,71.3 50.4,71.6 C51.2,71.9 52.2,71.7 52.5,70.9 C52.7,70.7 53.9,67 58.1,65.8 L52.9,78.1 C52.9,78.1 52.9,78.1 52.9,78.1 C52.6,78.9 51.7,79.3 50.9,79 C41.9,74.6 42.4,74.8 42.3,74.8 C41.2,74.4 40.9,73 41.8,72.2 C41.9,72.1 45.2,68.4 59.2,52.5 C65.1,52.2 70.6,49.8 74.7,45.7 C75.3,45.1 75.3,44.1 74.7,43.4 C74.1,42.8 73.1,42.8 72.4,43.4 C65.3,50.5 56.8,49.2 55.9,49.3 C48.9,49.3 42.4,45.7 38.7,39.8 L37.7,38.2 L38.9,38.7 C46.2,41.6 55.4,40.5 61.7,36.3 C62.4,35.8 62.6,34.8 62.1,34.1 C61.6,33.4 60.6,33.2 59.9,33.7 C54.4,37.4 46.4,38.2 40.1,35.7 L34.9,33.7 L30.7,27 L40.2,27 C42.8,27 45.5,26.8 48.1,26.4 C53.5,25.5 55.7,24.3 57.8,24 C60.8,23.5 63.9,24.1 66.6,25.7 L79.1,33.2 C79.9,33.7 80.8,33.4 81.3,32.7 C81.8,31.9 81.5,31 80.8,30.5 L78.5,29.1 C89.7,16.4 89.1,17.1 89.2,17 C90.5,15.2 92.6,14.2 94.8,14.2 C97.5,14.2 99.9,15.7 101.1,18.1 L104,23.8 L103.3,23.8 Z" id="Shape" fill="#F7CF2D" fill-rule="nonzero"></path>
        </g>
    </g>
</svg>