<?xml version="1.0" encoding="utf-8"?>
<!-- Generator: Adobe Illustrator 21.1.0, SVG Export Plug-In . SVG Version: 6.00 Build 0)  -->
<svg version="1.1" id="Слой_1" xmlns="http://www.w3.org/2000/svg" xmlns:xlink="http://www.w3.org/1999/xlink" x="0px" y="0px"
	 viewBox="0 0 169 170" style="enable-background:new 0 0 169 170;" xml:space="preserve">
<style type="text/css">
	.st0{fill:none;stroke:#F7CF2D;stroke-width:5;stroke-linecap:round;stroke-miterlimit:10;}
	.st1{fill:none;stroke:#000000;stroke-width:5;stroke-linecap:round;stroke-miterlimit:10;}
</style>
<g>
	<path class="st0" d="M15.8,104L15.8,104c-2.4,0-4.3,1.9-4.3,4.3v58.2h8.7v-58.2C20.2,105.9,18.2,104,15.8,104z"/>
	<path class="st0" d="M134.8,128.5L134.8,128.5c-2.4,0-4.3,1.9-4.3,4.3v33.7h8.7v-33.7C139.2,130.4,137.2,128.5,134.8,128.5z"/>
	<path class="st0" d="M51.8,104L51.8,104c-2.4,0-4.3,1.9-4.3,4.3v58.2h8.7v-58.2C56.2,105.9,54.2,104,51.8,104z"/>
	<line class="st1" x1="11.5" y1="114.5" x2="53.5" y2="114.5"/>
	<polyline class="st1" points="49,128.5 89.6,128.5 139.2,144.7 	"/>
	<line class="st0" x1="3.5" y1="166.5" x2="27.5" y2="166.5"/>
	<line class="st0" x1="39.5" y1="166.5" x2="63.5" y2="166.5"/>
	<line class="st0" x1="122.5" y1="166.5" x2="146.5" y2="166.5"/>
</g>
</svg>
