<?xml version="1.0" encoding="utf-8"?>
<!-- Generator: Adobe Illustrator 21.1.0, SVG Export Plug-In . SVG Version: 6.00 Build 0)  -->
<svg version="1.1" id="Слой_1" xmlns="http://www.w3.org/2000/svg" xmlns:xlink="http://www.w3.org/1999/xlink" x="0px" y="0px"
	 viewBox="0 0 513 511.5" style="enable-background:new 0 0 513 511.5;" xml:space="preserve">
<style type="text/css">
	.st0{fill:#F2D41A;}
</style>
<g>
	<g>
		<path class="st0" d="M509.9,255.5l-253.5,0.1l253.4-6.7c-0.2-7.6-0.7-15.2-1.6-22.8l0,0c-0.1-0.9-0.2-1.7-0.3-2.6
			c-0.1-0.5-0.1-1-0.2-1.5c-0.2-1.6-0.4-3.1-0.7-4.7c-0.1-0.4-0.1-0.7-0.2-1.1c-0.3-1.7-0.5-3.4-0.8-5.1c0-0.2-0.1-0.5-0.1-0.7
			c-0.3-1.8-0.7-3.5-1-5.3c0-0.2-0.1-0.3-0.1-0.5c-0.4-1.8-0.8-3.6-1.2-5.4c0-0.2-0.1-0.3-0.1-0.5c-0.4-1.8-0.8-3.5-1.3-5.3
			c0-0.2-0.1-0.4-0.1-0.6c-0.4-1.7-0.9-3.4-1.3-5.1c-0.1-0.3-0.1-0.5-0.2-0.8c-0.4-1.6-0.9-3.1-1.4-4.6c-0.1-0.4-0.2-0.8-0.4-1.2
			c-0.4-1.3-0.8-2.7-1.3-4c-0.2-0.6-0.4-1.2-0.6-1.8c-0.3-1-0.7-2-1-3c-0.3-0.9-0.6-1.9-1-2.8c-0.2-0.5-0.4-1-0.5-1.4
			c-11.6-31.6-29.7-61.4-54.3-87.3l0,0c-8.2-8.7-17.1-16.7-26.4-24.2l0,0c-21.5-17.1-45.1-30.1-69.9-39.2c-0.2-0.1-0.5-0.2-0.7-0.3
			c-1-0.4-2.1-0.7-3.1-1.1c-0.8-0.3-1.6-0.6-2.4-0.9c-0.4-0.1-0.7-0.2-1.1-0.4c-11.7-3.9-23.8-7-36.3-9.1c-0.5-0.1-1-0.2-1.5-0.3
			c-1.1-0.2-2.1-0.3-3.2-0.5c-0.9-0.1-1.8-0.3-2.7-0.4c-0.8-0.1-1.6-0.2-2.3-0.3c-1.2-0.2-2.4-0.3-3.6-0.5c-0.5-0.1-1.1-0.1-1.6-0.2
			c-1.5-0.2-3-0.3-4.5-0.5c-0.3,0-0.6-0.1-0.9-0.1c-1.7-0.2-3.5-0.3-5.2-0.4c-0.1,0-0.2,0-0.3,0c-16.7-1.2-33.5-0.7-50.1,1.4
			c-0.2,0-0.4,0.1-0.6,0.1c-1.8,0.2-3.6,0.5-5.4,0.8c-0.4,0.1-0.9,0.1-1.3,0.2c-1.6,0.2-3.1,0.5-4.7,0.8c-0.5,0.1-1.1,0.2-1.6,0.3
			c-1.5,0.3-2.9,0.6-4.4,0.8c-0.5,0.1-1.1,0.2-1.6,0.3c-1.5,0.3-3.1,0.7-4.6,1c-0.4,0.1-0.9,0.2-1.3,0.3c-1.8,0.4-3.7,0.9-5.5,1.3
			c-0.1,0-0.2,0-0.3,0.1c-42.5,10.9-82.6,33-115.9,66.2c-25.4,25.4-44.3,54.9-56.6,86.3c0,0,0,0,0,0c-0.7,1.8-1.4,3.6-2.1,5.4
			c-0.1,0.3-0.2,0.6-0.3,0.9c-0.6,1.5-1.1,3.1-1.6,4.7c-0.2,0.5-0.4,1.1-0.6,1.6c-0.4,1.3-0.9,2.6-1.3,4c-0.2,0.8-0.5,1.5-0.7,2.3
			c-0.3,1.1-0.7,2.2-1,3.4c-0.3,1-0.5,1.9-0.8,2.9c-0.3,1-0.5,1.9-0.8,2.9c-0.3,1.1-0.6,2.2-0.8,3.3c-0.2,0.9-0.4,1.7-0.6,2.6
			c-0.3,1.2-0.5,2.3-0.8,3.5c-0.2,0.8-0.4,1.7-0.5,2.5c-0.3,1.2-0.5,2.4-0.7,3.6c-0.2,0.8-0.3,1.7-0.5,2.5c-0.2,1.2-0.4,2.3-0.6,3.5
			c-0.2,0.9-0.3,1.8-0.5,2.7c-0.2,1.1-0.4,2.2-0.5,3.3c-0.2,1-0.3,2.1-0.4,3.2c-0.1,1-0.3,1.9-0.4,2.9c-0.2,1.3-0.3,2.5-0.4,3.8
			c-0.1,0.8-0.2,1.5-0.2,2.3c-0.2,1.6-0.3,3.2-0.4,4.8c0,0.4-0.1,0.9-0.1,1.3c-0.8,10.7-0.9,21.4-0.4,32.2c0,0.3,0,0.6,0.1,0.9
			c0.1,1.7,0.2,3.5,0.3,5.2c0.1,0.8,0.1,1.7,0.2,2.5c0.1,1.2,0.2,2.4,0.3,3.5c0.1,1.2,0.2,2.4,0.4,3.5c0.1,0.8,0.2,1.6,0.3,2.4
			c0.2,1.4,0.4,2.9,0.6,4.3c0.1,0.5,0.1,1.1,0.2,1.6c0.2,1.6,0.5,3.2,0.8,4.8c0.1,0.4,0.1,0.7,0.2,1.1c0.3,1.7,0.6,3.5,0.9,5.2
			c0,0.2,0.1,0.5,0.1,0.7c0.4,1.8,0.7,3.6,1.1,5.4c0,0.2,0.1,0.3,0.1,0.5c0.4,1.9,0.8,3.7,1.3,5.5c0,0.1,0.1,0.3,0.1,0.4
			c0.5,1.8,0.9,3.7,1.4,5.5c0,0.2,0.1,0.3,0.1,0.5c0.5,1.8,1,3.5,1.5,5.3c0.1,0.2,0.1,0.5,0.2,0.7c0.5,1.7,1,3.3,1.5,5
			c0.1,0.4,0.2,0.7,0.4,1.1c0.5,1.5,1,3,1.5,4.6c0.2,0.5,0.4,1.1,0.6,1.6c0.5,1.3,1,2.7,1.5,4c0.3,0.7,0.5,1.4,0.8,2.1
			c0.4,1.1,0.9,2.3,1.3,3.4c0.4,0.9,0.7,1.8,1.1,2.7c0.4,0.9,0.8,1.8,1.1,2.7c0.5,1.1,1,2.2,1.5,3.3c0.3,0.7,0.6,1.4,0.9,2.1
			c0.6,1.3,1.2,2.6,1.8,3.9c0.2,0.5,0.5,1,0.7,1.5c0.7,1.4,1.4,2.9,2.1,4.3c0.2,0.3,0.3,0.7,0.5,1c0.8,1.5,1.6,3.1,2.4,4.6
			c0.1,0.2,0.2,0.4,0.4,0.7c0.9,1.6,1.8,3.2,2.7,4.8c0.1,0.1,0.2,0.3,0.3,0.4c0.9,1.6,1.9,3.3,2.9,4.9c0.1,0.1,0.1,0.2,0.2,0.4
			c1,1.6,2,3.2,3,4.8c0.1,0.1,0.2,0.3,0.3,0.4c1,1.6,2,3.1,3.1,4.6c0.1,0.2,0.3,0.4,0.4,0.6c1,1.5,2,2.9,3,4.3
			c0.2,0.3,0.4,0.6,0.6,0.9c0.9,1.3,1.9,2.6,2.9,3.9c0.3,0.4,0.7,0.9,1,1.3c0.9,1.1,1.7,2.3,2.6,3.4c0.5,0.6,1,1.3,1.5,1.9
			c0.7,0.9,1.5,1.9,2.2,2.8c0.7,0.9,1.5,1.8,2.3,2.7c0.5,0.6,1.1,1.3,1.6,1.9c1.1,1.3,2.3,2.6,3.5,3.9c0.2,0.2,0.4,0.4,0.6,0.7
			c7.2,8,14.9,15.5,23,22.5c0.3,0.3,0.7,0.6,1,0.8c1.2,1,2.5,2.1,3.7,3.1c0.6,0.5,1.2,0.9,1.8,1.4c1,0.8,2,1.6,3,2.4
			c0.8,0.6,1.5,1.2,2.3,1.8c0.8,0.6,1.7,1.3,2.5,1.9c0.9,0.7,1.8,1.3,2.7,2c0.7,0.5,1.5,1.1,2.3,1.6c1,0.7,2,1.4,2.9,2
			c0.7,0.5,1.4,1,2.1,1.4c1,0.7,2,1.4,3.1,2c0.7,0.5,1.4,0.9,2.1,1.4c1,0.6,2,1.3,3,1.9c0.8,0.5,1.5,0.9,2.3,1.4
			c1,0.6,1.9,1.1,2.9,1.7c0.9,0.5,1.7,1,2.6,1.5c0.9,0.5,1.7,1,2.6,1.5c1,0.6,2.1,1.1,3.1,1.7c0.7,0.4,1.4,0.8,2.1,1.1
			c1.2,0.6,2.5,1.3,3.7,1.9c0.5,0.3,1,0.5,1.6,0.8c1.5,0.7,3,1.4,4.5,2.1c0.3,0.1,0.6,0.3,0.8,0.4c1.8,0.8,3.5,1.6,5.3,2.4
			c0,0,0,0,0,0c31,13.5,65.2,21,101.1,21c44.8,0,86.8-11.6,123.3-32c0,0,0,0,0,0c1.8-1,3.6-2,5.3-3.1c0,0,0.1,0,0.1-0.1
			c29.4-17.4,55.1-40.6,75.3-68c0,0,0,0,0,0c1.2-1.6,2.4-3.3,3.6-4.9c0,0,0.1-0.1,0.1-0.1c1.2-1.7,2.3-3.4,3.5-5.1c0,0,0,0,0,0
			c25-37.7,40.2-82.4,42-130.7c0-0.3,0-0.6,0-0.8c0-0.7,0.1-1.4,0.1-2.2l0,0C509.9,259.8,509.9,257.7,509.9,255.5z"/>
	</g>
	<g>
		<path class="st0" d="M509.8,248.9l0.1,6.5C509.9,253.3,509.9,251.1,509.8,248.9z"/>
	</g>
</g>
</svg>
