<?xml version="1.0" encoding="utf-8"?>
<!-- Generator: Adobe Illustrator 21.1.0, SVG Export Plug-In . SVG Version: 6.00 Build 0)  -->
<svg version="1.1" id="Слой_1" xmlns="http://www.w3.org/2000/svg" xmlns:xlink="http://www.w3.org/1999/xlink" x="0px" y="0px"
	 viewBox="0 0 178.7 168.9" style="enable-background:new 0 0 178.7 168.9;" xml:space="preserve">
<style type="text/css">
	.st0{display:none;}
	.st1{display:inline;fill:#F2D41A;}
	.st2{fill:#F2D41A;}
	.st3{display:inline;}
	.st4{display:none;fill:#F2D41A;}
</style>
<g class="st0">
	<path class="st1" d="M30.7,155.8c-1.2,0-2.3-0.6-3-1.7c-4-6.2-24.3-38.5-26.2-56.4c-1.9-17,2-32.6,3.3-37l0.1-0.2
		c0.6-1.5,1.8-2.4,3.3-2.4c6.9-0.2,24.6-0.1,38,4.4c8.3,2.8,13.8,9.2,17.2,15.1C88,73.2,98,87.1,101.8,92.4c0.4,0.6,0.9,1.3,1.1,1.5
		c0.2,0.1,1,0.5,3.3,0.3c-8.1-14.4-4.7-36.9-3.8-42.1c-4.9-4.7-6.9-4.5-10-4.3c-1.9,0.2-4.4,0.4-7.6-0.6c-7.7-2.2-14.2-13.6-16-18.5
		c-1-2.8-1.1-4.6-0.3-5.8c1.2-1.7,3.7-2.6,6.2-3.1c-0.2-1-0.1-1.9,0.2-2.8c0.8-2.3,2.9-4.1,6.5-5.2c9.6-3,26.4,4.4,31.1,7.7
		c4.8,3.4,6.2,9.4,7.7,15.7c0.9,3.9,1.9,8,3.7,11.5c0.8,1.6,3.8,5.7,6.9,10c5,6.8,11.1,15.3,14.6,21.8c7.7,14.6,4.7,38.8,4.3,42
		c-0.1,1-0.7,2-1.6,2.6l-0.1,0.1c-43.9,26.5-85.9,16-97.3,12.4c-3.6,9.7-13.8,16.9-18.1,19.6C32,155.6,31.3,155.8,30.7,155.8z
		 M32,151.4C32,151.5,32,151.5,32,151.4C32,151.5,32,151.5,32,151.4z M9.3,63.1c-1.4,5.2-4.5,19.1-2.8,34
		c1.7,15.8,19.4,44.7,24.7,53.1c4.1-2.7,13-9.4,15.3-17.6l0.1-0.2c0.3-0.8,0.8-1.4,1.5-1.8c0.8-0.5,1.9-0.6,2.8-0.2
		c8.1,2.8,49.9,15.2,94-11c0.5-4.1,2.8-25.9-3.8-38.5c-3.3-6.2-9.3-14.5-14.2-21.2c-3.5-4.9-6.3-8.7-7.3-10.7
		c-2.1-4-3.1-8.4-4.1-12.6c-1.3-5.6-2.5-10.5-5.7-12.8c-4.6-3.3-19.5-9.3-26.7-7.1c-2.1,0.7-3.1,1.5-3.2,2c-0.1,0.5,0.2,1.1,0.5,1.6
		c0.4,0.6,0.6,1.3,0.5,2c-0.1,0.5-0.4,1.4-1.6,2l-0.4,0.2l-0.5,0c-2.6,0.2-4.4,0.7-5.2,1.1c0.6,3.5,7.2,15.2,13.2,16.9
		c2.3,0.7,4,0.5,5.8,0.4c4.4-0.4,8.1-0.1,14.5,6.2c0.7,0.7,1.3,1.9,1,3.3c-0.4,2.1-5.1,28.4,4.5,41.7l0.2,0.3
		c0.5,0.9,0.5,1.9,0.1,2.8c-0.4,0.9-1.2,1.5-2.2,1.7l-0.1,0c-4.9,0.8-8.1,0.5-10.1-1c-0.7-0.5-1.3-1.4-2.2-2.6
		c-3.5-4.9-11.5-16.1-32-13c1.7,3.9,2.5,6.8,2.5,7.1c0.3,1.3-0.5,2.7-1.8,3c-1.3,0.3-2.7-0.5-3-1.8l0,0c0-0.2-4.7-18.5-18.9-23.3
		C32.4,63.2,15.6,63,9.3,63.1z M8.3,63.1C8.3,63.1,8.3,63.1,8.3,63.1C8.3,63.2,8.3,63.1,8.3,63.1z M73,25.1L73,25.1z"/>
</g>
<g class="st0">
	<path class="st1" d="M52.5,45.9c0-8.5-7-15.5-15.5-15.5s-15.5,7-15.5,15.5s7,15.5,15.5,15.5S52.5,54.5,52.5,45.9z M26.5,45.9
		c0-5.8,4.7-10.5,10.5-10.5s10.5,4.7,10.5,10.5S42.8,56.4,37,56.4S26.5,51.7,26.5,45.9z"/>
	<path class="st1" d="M78.7,61.4c8.5,0,15.5-7,15.5-15.5s-7-15.5-15.5-15.5s-15.5,7-15.5,15.5S70.1,61.4,78.7,61.4z M78.7,35.4
		c5.8,0,10.5,4.7,10.5,10.5s-4.7,10.5-10.5,10.5c-5.8,0-10.5-4.7-10.5-10.5S72.9,35.4,78.7,35.4z"/>
	<path class="st1" d="M165,33.4c-1.4-2.2-4.6-3.5-7.9-1.7l-36.4,20.6C108.6,27.6,84,10,60.2,9.1c-19.5-0.6-38.5,9.7-48.6,20.2
		C4.9,36.2,1.5,43.5,1.9,49.9c0.5,7.8,6.2,12.6,11.8,17.3c5.2,4.4,10.2,8.6,10,14.8c-0.1,6-5.1,9.9-10.3,14.1
		c-5.6,4.4-11.4,9-12.3,16.7c-0.6,5.9,1.8,12.4,7.1,18.9c9.9,12.2,27.3,21.6,43.3,23.2c1.9,0.2,3.7,0.3,5.6,0.3
		c14.6,0,29.9-5.6,42.8-15.9c15.1-12,24.9-28.3,27.6-46c1.2-7.6,1-15.5-0.7-23.5l36.7-28.5C166.4,39,166.5,35.6,165,33.4z
		 M122.6,92.6c-5,33.3-38.6,60.7-70.6,57.4c-14.8-1.5-30.9-10.2-40-21.4c-4.3-5.4-6.5-10.8-6-15.2c0.6-5.6,5.4-9.4,10.4-13.3
		c5.6-4.4,12-9.5,12.2-17.9c0.2-8.6-6.2-14-11.8-18.8c-5-4.2-9.6-8.1-10-13.8c-0.3-5,2.6-10.9,8.3-16.8c9.4-9.7,26.9-19.2,44.9-18.7
		c22.2,0.7,45.1,17.3,56.4,40.6L94,67.3C72.8,69.3,67.4,81,63.1,90.5c-2.4,5.3-4.5,9.9-8.9,12.6c-3.4,2.1-6.8,3.6-9.4,4.6
		c-2.3-1.4-5-2.2-7.9-2.2c-8.5,0-15.5,7-15.5,15.5s7,15.5,15.5,15.5s15.5-7,15.5-15.5c0-2.5-0.6-4.8-1.6-6.8
		c4.3-0.2,9.3-0.6,14.7-1.4c-1.5,2.4-2.4,5.2-2.4,8.2c0,8.5,7,15.5,15.5,15.5s15.5-7,15.5-15.5c0-5.8-3.2-10.9-7.9-13.5
		c4.6-1.9,8.9-4.3,12.3-7.4c0.3,0,0.6,0,0.8,0c8.5,0,15.5-7,15.5-15.5c0-1.6-0.3-3.2-0.8-4.8l8.3-6.5
		C123.5,79.8,123.6,86.3,122.6,92.6z M109.8,83.1c0.1,0.5,0.1,1,0.1,1.4c0,4.3-2.6,8-6.3,9.6c1.6-2.6,2.7-5.5,3.3-8.8L109.8,83.1z
		 M96,95.5c-0.1,0.1-0.2,0.2-0.3,0.3c-9.8,9.3-28.9,12.2-41.6,13.1c0.9-0.5,1.8-1,2.8-1.6c5.6-3.4,8.2-9.2,10.8-14.7
		c4.1-9,8.4-18.3,25.9-20.2l8.3,12.2C101.1,89,99.1,92.5,96,95.5z M89.2,120.9c0,5.8-4.7,10.5-10.5,10.5c-5.8,0-10.5-4.7-10.5-10.5
		s4.7-10.5,10.5-10.5C84.5,110.4,89.2,115.2,89.2,120.9z M47.5,120.9c0,5.8-4.7,10.5-10.5,10.5s-10.5-4.7-10.5-10.5
		s4.7-10.5,10.5-10.5c1.1,0,2.2,0.2,3.2,0.5c-0.1,0.4-0.1,0.7,0,1.1c0.3,1.3,1.4,2.2,2.7,2.2c0.4,0,0.8,0,1.3,0c0.3,0,0.6,0,0.9,0
		C46.6,116.1,47.5,118.4,47.5,120.9z M160.5,37.4l-37.5,29.2c-0.3,0.1-0.5,0.3-0.7,0.6L110,76.6c-0.3,0.2-0.6,0.4-0.8,0.6l-4.1,3.2
		l-6.7-9.8L159.6,36c0.6-0.3,1.1-0.3,1.3,0.1C161.1,36.5,161,37,160.5,37.4z"/>
</g>
<path class="st2" d="M163.7,76.1v9.2h-56.3V11h-15v12.5H16V11H1v143.3h15v-12.4h76.4v12.4h15v-64h56.3v64.1h15V76.1H163.7z M16,73.9
	h76.4v17.6H16V73.9z M92.4,68.9H16V51.2h76.4V68.9z M16,96.5h76.4v17.7H16V96.5z M92.4,28.5v17.7H16V28.5H92.4z M11,149.3H6V16h5
	V149.3z M16,136.9v-17.7h76.4v17.7H16z M102.4,149.3h-5V16h5V149.3z M173.7,149.4h-5V81.1h5V149.4z"/>
<g class="st0">
	<path class="st1" d="M16.2,70.6L15,70.2c-1.3-0.5-5.1-6.9-7.2-10.8c-2.8-5-6.2-11.9-6.7-16.5c-0.9-7.5,1.4-17.4,2.4-18.4l0.6-0.7
		l1.3,0c2.7,0,11-0.1,17.3,2.1c3.8,1.3,6.3,4.1,8,6.8c7-1.1,12.8,1,16.8,3.3c-0.7-3.7-0.7-8.4-0.2-13.9c-1.7-1.5-2.4-1.5-3.7-1.4
		c-0.9,0.1-2.1,0.2-3.7-0.3c-3.9-1.1-7-6.5-7.9-9c-0.4-1-0.7-2.4,0-3.4l0.1-0.2c0.7-1.2,2.5-4.2,6.3-5.4c4.6-1.5,12.6,2,15,3.7
		c2.5,1.8,3.2,4.8,3.9,7.8c0.4,1.7,0.9,3.6,1.6,5.1c0.3,0.7,1.7,2.6,3.1,4.5c2.3,3.2,5.2,7.2,6.8,10.2c3.2,6.2,2.6,20,1.2,21.4
		l-0.2,0.2l-0.2,0.1c-20.3,12.2-39.6,7.6-45,5.9c-0.3,0.4-0.8,0.9-1.2,1.4c-3.6,4.2-5.6,6.5-6.7,7.3L16.2,70.6z M6.5,27.8
		c-0.7,2.7-2,9.1-1.3,14.7C5.8,48.4,13,60.7,16,65.3c1.5-1.6,3.6-4.1,4.7-5.3c2.6-3.1,2.6-3.1,3.6-3.1h0.4L25,57
		c2.1,0.8,21.4,7.3,42.1-4.7c0.3-2.9,0.9-12.1-1.5-16.8c-1.5-2.8-4.3-6.6-6.5-9.7c-1.9-2.6-3-4.1-3.4-5c-1-1.9-1.5-4.1-1.9-6
		c-0.6-2.4-1.1-4.5-2.3-5.4c-2-1.4-8.6-4-11.5-3.1c-2.2,0.7-3.3,2.4-3.9,3.4c0.4,1.7,3.2,6.3,5.4,6.9c0.9,0.3,1.6,0.2,2.3,0.1
		c2.2-0.2,4.2,0,7.4,3.2c0.7,0.7,0.6,1.4,0.5,2.3c-1.3,11.8,0.8,16.6,2.1,18.4l0.2,0.3l0.8,1.5l-1.4,1c-0.1,0.1-1.4,1-2.7-0.3
		c-1.9-1.9-8.5-7.5-17.7-6.6c0.5,1.4,0.8,2.3,0.8,2.4c0.3,1.1-0.4,2.2-1.5,2.4c-1.1,0.3-2.2-0.4-2.4-1.5l0,0c0-0.1-2.1-8.1-8.1-10.2
		C16.5,27.9,9.7,27.8,6.5,27.8z M5.1,27.8L5.1,27.8C5.1,27.8,5.1,27.8,5.1,27.8z"/>
</g>
<g class="st0">
	<g class="st3">
		<path class="st2" d="M84.4,168.9l-16.1-23.2l-25.5,12l-2.3-28.2l-28.2-2.3l12-25.6L1,85.5l23.2-16.2l-12-25.5l28.2-2.4l2.3-28.2
			l25.6,12.1L84.4,2.1l16.1,23.2l25.6-12.1l2.3,28.2l28.2,2.4l-12,25.5l23.2,16.2l-23.2,16l12,25.6l-28.2,2.3l-2.3,28.2l-25.5-12
			L84.4,168.9z M69.9,139.3l14.5,20.8l14.5-20.8l22.9,10.8l2.1-25.2l25.2-2.1l-10.8-23L159,85.5L138.2,71L149,48.2L123.8,46
			l-2.1-25.2L98.9,31.7L84.4,10.9L69.9,31.7L47.1,20.8L45,46l-25.2,2.2L30.6,71L9.8,85.5l20.8,14.4l-10.8,23l25.2,2.1l2.1,25.2
			L69.9,139.3z"/>
	</g>
</g>
<path class="st4" d="M165.6,130.8l-23.5-8.3V48.6l-1.5-0.7c0,0,0,0,0,0L85.8,23.7V4.6c0-1.4-1.1-2.5-2.5-2.5s-2.5,1.1-2.5,2.5v19.1
	L26,47.9c0,0,0,0,0,0l-1.5,0.7V123l-21.8,7.7c-1.3,0.5-2,1.9-1.5,3.2c0.4,1,1.3,1.7,2.4,1.7c0.3,0,0.6,0,0.8-0.1l23.7-8.4l55.3,24.8
	l56.1-25.1l24.6,8.7c0.3,0.1,0.6,0.1,0.8,0.1c1,0,2-0.6,2.4-1.7C167.6,132.7,166.9,131.2,165.6,130.8z M83.3,56.2
	c1.4,0,2.5-1.1,2.5-2.5V29.2l47.3,20.9L84.2,68.9c-0.3-0.1-0.6-0.2-0.9-0.2s-0.6,0.1-0.9,0.2L33.5,50.1l47.3-20.9v24.6
	C80.8,55.1,81.9,56.2,83.3,56.2z M62.7,112.2c-0.5-1.3-1.9-2-3.2-1.5l-30,10.6V53.9l51.3,19.8v71.6l-46-20.6l26.3-9.3
	C62.4,114.9,63.1,113.5,62.7,112.2z M85.8,145.3V73.6l51.3-19.8v66.8l-28.3-10c-1.3-0.5-2.7,0.2-3.2,1.5c-0.5,1.3,0.2,2.7,1.5,3.2
	l25.4,9L85.8,145.3z"/>
<path class="st4" d="M156.5,138.2l-31.8-31.8l7.5-7.5l-9.7-9.7l-10.7,10.7L93.5,81.5l21.3-21.3c10.8,3.9,22.8,1.2,31.1-7.1
	c10.8-10.8,11.7-27.9,2.2-39.7l-2.6-3.2l-9.1,20.1c-1,2.3-2.9,4-5.3,4.9c-2.4,0.9-5,0.8-7.3-0.2l-2.4-1.1c-2.3-1-4-2.9-4.9-5.3
	c-0.9-2.4-0.8-5,0.2-7.3l8.9-19.4l-4.4,0.5c-6.6,0.8-12.6,3.7-17.4,8.5c-8.2,8.2-10.9,20.2-7,31L75.4,63.5L44.2,32.1l-1.9-11.4
	L22.6,11L17,16.7l-5.7,5.7l10.5,19l11.3,1.9l31.3,31.2L40.8,98.1c-10.8-3.9-22.8-1.2-31.1,7.1c-11.1,11.1-11.6,29-1.3,40.7l2.6,2.9
	l10.4-22.9c1-2.3,2.9-4,5.3-4.9c2.4-0.9,5-0.8,7.3,0.2l2.4,1.1c2.3,1,4,2.9,4.9,5.3c0.9,2.4,0.8,5-0.2,7.3l-9.7,21.6l4.6-0.8
	c6-1,11.5-3.9,16.1-8.3c8-8.2,10.6-20.3,6.8-31.1l23.6-23.6l18.4,18.4l-10.8,10.8l9.7,9.7l7.5-7.5l31.8,31.8L156.5,138.2z M36,39.2
	C36,39.2,36,39.2,36,39.2c-0.1-0.1-0.2-0.2-0.3-0.2c-0.1,0-0.1-0.1-0.1-0.1c-0.1,0-0.1-0.1-0.2-0.1c-0.1,0-0.1-0.1-0.2-0.1
	c-0.1,0-0.1,0-0.2-0.1c-0.1,0-0.2-0.1-0.3-0.1c0,0,0,0,0,0L25,36.9l-7.5-13.6l3.1-3.1l3-3.1l14.2,7l1.6,9.6c0,0,0,0,0,0
	c0,0.1,0,0.2,0.1,0.3c0,0.1,0,0.1,0.1,0.2c0,0.1,0.1,0.1,0.1,0.2c0,0.1,0.1,0.2,0.1,0.2c0,0.1,0.1,0.1,0.1,0.2
	c0.1,0.1,0.1,0.2,0.2,0.2c0,0,0,0,0,0L71.9,67l-4,4L36,39.2z M53.7,116.5c3.9,9.4,1.8,20.1-5.1,27.3c-2.5,2.5-5.4,4.3-8.5,5.6
	l5.6-12.4c3.3-7.3,0-15.9-7.2-19.2l-2.4-1.1c-1.9-0.9-4-1.3-6-1.3c-5.5,0-10.8,3.2-13.2,8.5l-7.1,15.5c-6-9.6-4.7-22.4,3.5-30.6
	c7.2-7.2,17.9-9.3,27.2-5.4l1.6,0.7l60.6-60.6l-0.6-1.5c-3.9-9.4-1.8-20,5.4-27.2c2.8-2.8,6.1-4.9,9.8-6.1l-4.9,10.8
	c-3.3,7.3,0,15.9,7.2,19.2l2.4,1.1c3.5,1.6,7.5,1.7,11.1,0.3c3.7-1.4,6.5-4.1,8.1-7.6l5.6-12.3c5.3,9.5,3.7,21.6-4.2,29.5
	c-7.2,7.2-17.9,9.3-27.2,5.4l-1.6-0.7L53,114.9L53.7,116.5z M90,85.1l18.4,18.4l-4,4L86,89L90,85.1z M99.8,124.3l-2.6-2.6l25.5-25.5
	l2.6,2.6l-4,4l0,0l-17.5,17.5l0,0L99.8,124.3z M121.2,110l28.3,28.3l-10.4,10.4l-28.3-28.3L121.2,110z"/>
</svg>
